<svg id="fd9d632d-5ca7-46f3-8126-f1580d0e8141" data-name="Layer 1" xmlns="http://www.w3.org/2000/svg" xmlns:xlink="http://www.w3.org/1999/xlink" width="100.1" height="101.97" viewBox="0 0 100.1 101.97"><defs><mask id="f1ff7e33-2cfb-423d-81fa-c26fc374e87e" x="1" y="1" width="98.1" height="100.97" maskUnits="userSpaceOnUse"><g id="be543f43-e5c3-4704-adb4-20f41312097c" data-name="mask-2"><circle id="fa6eec9b-1fdf-476f-bfc5-66c36d21447e" data-name="path-1" cx="50.05" cy="50.05" r="49.05" style="fill:#fff"/></g></mask></defs><ellipse cx="49.82" cy="49.56" rx="49.3" ry="49.56" style="fill:#fff"/><g id="aa637dfc-9b97-4ddf-b74a-434c1b5227d0" data-name="Page-1"><g id="fa198285-3705-45cb-8e41-1d8e847dcd57" data-name="web 05 02"><g id="fd11f59d-7e4c-4d19-8dc5-ed3b2399876b" data-name="explainer-diagram"><g id="bbe00407-0670-4de8-936e-a45a63dca852" data-name="alice"><g id="e105db52-17a6-43c5-aaea-64613e5935d6" data-name="doodle"><g id="a4b22a61-585d-49c0-8057-6804c608ce56" data-name="Group-4"><g id="e1f2937d-d5e4-4114-b147-a71aa4549803" data-name="alice"><g id="eae568fa-db98-4ae9-a46b-481a3e339306" data-name="Group-16"><circle cx="50.05" cy="50.05" r="49.55" style="fill:none;stroke:#000"/><g style="mask:url(#f1ff7e33-2cfb-423d-81fa-c26fc374e87e)"><g id="e20b9705-6393-42a7-91d1-09afe559ca49" data-name="lady"><path id="f65574d4-ad31-48ef-b1b4-a0ecb63eb309" data-name="Path" d="M36.28,40.34c-3.72-2.33-3.28-5.1-2.22-8a20.59,20.59,0,0,1,3.48-6.25c1.71-2.41,5.11-6.06,8-6.06h9.17c1.15,0,4.81,1.09,5.1,3.39a7.72,7.72,0,0,1-.68,4.37c-.4,1.26-1.88,2.55-1,2.55a4.24,4.24,0,0,0,1.21-.17c.62-.17,1.38-.5,2.19-.76a3.53,3.53,0,0,1,3.31.64,4.64,4.64,0,0,1,1.55,4.47,63.79,63.79,0,0,1-2.26,6.65c-.75,2.13-1.58,3.58-.85,3.18s2.93-.66,2.93,1-1.55,4.69-2.8,6-3.85,4-4.73,4.48-1.39.24-2.08-.69a8.76,8.76,0,0,1-1.17-4.35,26.72,26.72,0,0,0-.56-4.69" style="fill:none;stroke:#062d56"/><path id="acc8f19b-238e-47e5-9036-c3b67821f287" data-name="Path-2" d="M36.45,37.66c.38-2.2,1.12-3.93,2.29-4.62s1-.4,1,0a11.14,11.14,0,0,0,1.85,3.59A11.3,11.3,0,0,0,47,39.81c2.56.49,3.36-.38,5-.75s2.54-.54,2.83-1a3.54,3.54,0,0,1,2.66-.45,1.83,1.83,0,0,1,1.56,1.93,3.58,3.58,0,0,1-1.86,2.74c-.88.66-1.72.85-1.83,1.36a21.78,21.78,0,0,1-1.24,4.14,11.88,11.88,0,0,1-4.24,3.79c-1.67.91-3.8,1.85-5.43,1.51a7.07,7.07,0,0,1-4.23-2.62,22.74,22.74,0,0,1-2.81-5.21A19.27,19.27,0,0,1,36.45,37.66Z" style="fill:none;stroke:#062d56"/><path id="e1388f71-2db2-4583-ab9f-99b5d787cac3" data-name="Path-3" d="M40.45,41.09a7.45,7.45,0,0,1,.12,2.75c-.12,1.11-1,2-.9,2.24s.28.63.78.63a9.54,9.54,0,0,0,1.38.15" style="fill:none;stroke:#062d56;stroke-linecap:round"/><path id="ba2c255f-9037-4966-8383-1555c1657acc" data-name="Path-4" d="M14,98.48c2.1-6.51,5.23-14.31,6-19.59s.71-7.67,1.09-10.82.76-5.33,3.07-7.58,4.58-2.64,7.06-3.11c2.45-.28,6.47-.47,8.64-1a5,5,0,0,0,4-3.2" style="fill:none;stroke:#062d56"/><path id="fb94973d-be0e-4bdf-a6cf-de0364b5775b" data-name="Path-5" d="M43.83,58.74c-2.73,1-5.46,4.35-5.46,3.21a32.57,32.57,0,0,1,1-5.39" style="fill:none;stroke:#062d56"/><path id="bf01bc0b-9b9e-4e5a-9833-78d037848d3c" data-name="Path-6" d="M50.56,58q-3.37,7.66-3.44,7.64C45.91,62.87,45,60.41,44,59.05a6.32,6.32,0,0,1-1.39-3.86" style="fill:none;stroke:#062d56;stroke-linecap:round;stroke-linejoin:round"/><path id="bd1b1a2a-4b8c-41af-ab44-73adc50ae04b" data-name="Path-7" d="M56.16,54.45c-1.42,1-5.36,3.31-5.09,3.42a67.46,67.46,0,0,1,6.32,2.73c.24-1.68.32-3.83.75-4a63.63,63.63,0,0,0,7.26.88c2.26.21,4.9.21,6.17,1.45s2.55,3.86,2.83,7.78.6,8.41.6,11.78,1.38,19.29,1.38,23" style="fill:none;stroke:#062d56;stroke-linecap:round;stroke-linejoin:round"/><path id="a62b636c-b402-43db-a258-33ce3b9bd11a" data-name="Path-8" d="M46.57,65.43c.3,2.19.45,7.26.45,9.49s-.1,12.35.27,14.92a109.27,109.27,0,0,1,.41,11.63" style="fill:none;stroke:#062d56"/><circle id="e13d2a3e-31aa-4c4f-991c-30ae3ce0a49b" data-name="Oval" cx="50.75" cy="71.66" r="1.2" style="fill:none;stroke:#062d56"/><circle id="a7e38a09-3413-4455-9b24-1adce25ffe29" data-name="Oval-Copy" cx="50.75" cy="76.46" r="1.2" style="fill:none;stroke:#062d56"/><circle id="ff78b34f-da5c-4171-bae6-a8ddac959eaf" data-name="Oval-Copy-2" cx="50.75" cy="82.46" r="1.2" style="fill:none;stroke:#062d56"/></g></g></g></g></g></g></g></g></g></g></svg>