<?xml version="1.0" encoding="UTF-8"?>
<svg width="101px" height="101px" viewBox="0 0 101 101" version="1.1" xmlns="http://www.w3.org/2000/svg" xmlns:xlink="http://www.w3.org/1999/xlink">
    <!-- Generator: sketchtool 63.1 (101010) - https://sketch.com -->
    <title>DAE2CF34-1A85-467C-9166-0ADC385719CF</title>
    <desc>Created with sketchtool.</desc>
    <defs>
        <circle id="path-1" cx="49.0499987" cy="49.0499987" r="49.0499987"></circle>
    </defs>
    <g id="Page-1" stroke="none" stroke-width="1" fill="none" fill-rule="evenodd">
        <g id="web_05_02" transform="translate(-369.000000, -4786.000000)">
            <g id="explainer-diagram" transform="translate(0.000000, 4453.000000)">
                <g id="alice" transform="translate(370.000000, 334.000000)">
                    <g id="doodle">
                        <g id="Group-4">
                            <g id="alice">
                                <g id="Group-16">
                                    <mask id="mask-2" fill="white">
                                        <use xlink:href="#path-1"></use>
                                    </mask>
                                    <circle stroke="#000000" cx="49.0499987" cy="49.0499987" r="49.5499987"></circle>
                                    <g id="lady" mask="url(#mask-2)" stroke="#062D56">
                                        <g transform="translate(13.000000, 19.000000)">
                                            <path d="M22.2757333,20.3399422 C18.5630867,18.0125082 18.9985847,15.2438238 20.055616,12.3130376 C21.1126473,9.38225135 21.8288095,8.46093784 23.5385752,6.05507837 C25.2483408,3.6492189 28.6491222,6.39488488e-15 31.5090833,6.39488488e-15 C34.3690443,6.39488488e-15 39.5346695,6.39488488e-15 40.6813493,6.39488488e-15 C41.828029,6.39488488e-15 45.4916766,1.09299321 45.7834735,3.38942885 C46.0752704,5.68586448 45.4916766,6.49687526 45.0971209,7.75788605 C44.7025653,9.01889684 43.2240984,10.3056889 44.1006609,10.3056889 C44.3206121,10.3056889 44.7589877,10.2982926 45.3132586,10.1447758 C45.9292523,9.97416363 46.6904006,9.64383063 47.4965351,9.38225135 C49.0280293,8.88530309 50.2622642,9.57222353 50.805837,10.0206303 C51.8307882,10.8661381 52.7654318,12.5333501 52.3582052,14.4894293 C51.9509786,16.4455085 50.8447286,19.0116218 50.0963399,21.141578 C49.3479512,23.2715341 48.5184834,24.7157236 49.2527363,24.3180185 C49.9869893,23.9203135 52.1756124,23.6591318 52.1756124,25.3167491 C52.1756124,26.9743663 50.6349629,30.0095959 49.3787129,31.3220227 C48.1224628,32.6344495 45.5285907,35.3701918 44.6520281,35.8047378 C43.7754656,36.2392837 43.257863,36.0432876 42.5655046,35.1063002 C41.8731462,34.1693129 41.5830339,32.7290052 41.403444,30.7592297 C41.2238542,28.7894543 41.1610856,26.9334239 40.839113,26.0736338" id="Path"></path>
                                            <path d="M22.4513681,17.6591316 C22.8306894,15.4560065 23.5743173,13.7346685 24.7426768,13.0399663 C25.9110362,12.3452642 25.7093272,12.6443853 25.7094737,12.9999029 C25.7096202,13.3554205 26.7979259,15.809986 27.558839,16.5944831 C28.3197521,17.3789802 30.4529309,19.317701 33.0138441,19.8073982 C35.5747573,20.2970955 36.3715591,19.4297615 38.001857,19.0560066 C39.6321549,18.6822517 40.535817,18.5207696 40.8336198,18.1149177 C41.1314225,17.7090658 42.6892839,17.4259284 43.4887224,17.6591316 C44.2881609,17.8923347 45.0492205,18.3138435 45.0492205,19.5915535 C45.0492205,20.8692635 44.0709246,21.6765534 43.1909197,22.3341806 C42.3109148,22.9918078 41.4725847,23.1782236 41.3615495,23.6896006 C41.2505143,24.2009775 40.7329118,26.6315196 40.1181901,27.8250743 C39.5034684,29.0186291 37.5613553,30.7050305 35.8835095,31.6198255 C34.2056638,32.5346204 32.0838148,33.4665541 30.4485364,33.1281751 C28.813258,32.7897962 27.378297,31.9729261 26.2228282,30.5074963 C25.0673594,29.0420666 23.9753916,26.7781505 23.406373,25.2974864 C22.8373544,23.8168222 22.0720468,19.8622566 22.4513681,17.6591316 Z" id="Path-2"></path>
                                            <path d="M26.4548594,21.0912606 C26.6804454,22.4030282 26.6904796,22.7384042 26.5713878,23.8446543 C26.452296,24.9509043 25.5306895,25.8530284 25.6719004,26.0797862 C25.8131114,26.306544 25.9531504,26.7144298 26.452296,26.7144298 C26.9296153,26.822755 27.3725841,26.822755 27.8348156,26.8558604" id="Path-3" stroke-linecap="round"></path>
                                            <path d="M-6.39488488e-15,78.4751984 C2.1017579,71.9695341 5.23242208,64.1707057 6.00849633,58.8870141 C6.78457058,53.6033224 6.71513699,51.2197286 7.09834013,48.0747089 C7.48154327,44.9296893 7.86093781,42.7444353 10.1683598,40.4853532 C12.4757817,38.2262711 14.7536139,37.8500653 17.2302253,37.3794448 C19.6782723,37.0965835 23.6962414,36.9088244 25.8738292,36.3962417 C28.0514169,35.883659 29.1045422,34.9206604 29.8343274,33.199176" id="Path-4"></path>
                                            <path d="M29.8343274,38.7417496 C27.104298,39.7239274 24.3742685,43.0870623 24.3742685,41.9528337 C24.3742685,41.1966813 24.7187022,39.3978531 25.4075694,36.5563491" id="Path-5"></path>
                                            <path d="M36.556935,38.0037613 C34.3054701,43.1105974 33.1582044,45.6569842 33.115138,45.6429217 C31.9123548,42.8721697 30.9824719,40.4094743 29.9670422,39.0454117 C28.9516125,37.6813492 28.5843761,36.4045913 28.5843761,35.1851088" id="Path-6" stroke-linecap="round" stroke-linejoin="round"></path>
                                            <path d="M42.156154,34.4488783 C40.7440446,35.4539077 36.7987808,37.7646988 37.0708023,37.8723648 C38.46548,38.2366714 42.5115251,40.2008805 43.3875017,40.6048844 C43.6328631,38.920607 43.708156,36.7702163 44.1446795,36.5563491 C46.0119159,37.0015151 48.9364766,37.2064468 51.3981466,37.439064 C53.6629416,37.645021 56.2965843,37.645021 57.5679222,38.8929215 C58.8392602,40.1408219 60.116018,42.7527849 60.3955102,46.6735858 C60.6750024,50.5943868 61.0012231,55.0765159 61.0012231,58.4544457 C61.0012231,61.8323755 62.3774439,77.7416047 62.3774439,81.4725618" id="Path-7" stroke-linecap="round" stroke-linejoin="round"></path>
                                            <path d="M32.5706556,45.4268573 C32.8683119,47.6217792 33.0237318,52.6885275 33.0237318,54.9199241 C33.0237318,57.1513206 32.9204603,67.267239 33.293556,69.8421414 C33.5422865,71.5587431 33.6776174,75.4355499 33.6995487,81.4725618" id="Path-8"></path>
                                            <circle id="Oval" cx="36.7497085" cy="51.6550802" r="1.20000005"></circle>
                                            <circle id="Oval-Copy" cx="36.7497085" cy="56.4550804" r="1.20000005"></circle>
                                            <circle id="Oval-Copy-2" cx="36.7497085" cy="62.4550806" r="1.20000005"></circle>
                                        </g>
                                    </g>
                                </g>
                            </g>
                        </g>
                    </g>
                </g>
            </g>
        </g>
    </g>
</svg>