<?xml version="1.0" encoding="UTF-8"?>
<svg width="82px" height="82px" viewBox="0 0 82 82" version="1.1" xmlns="http://www.w3.org/2000/svg" xmlns:xlink="http://www.w3.org/1999/xlink">
    <!-- Generator: sketchtool 63.1 (101010) - https://sketch.com -->
    <title>4AF1A5C4-328A-40E4-A239-F21AD49F008D</title>
    <desc>Created with sketchtool.</desc>
    <defs>
        <circle id="path-1" cx="39.6363626" cy="39.6363626" r="39.6363626"></circle>
    </defs>
    <g id="Page-1" stroke="none" stroke-width="1" fill="none" fill-rule="evenodd">
        <g id="web_05_02" transform="translate(-310.000000, -3583.000000)">
            <g id="how-works" transform="translate(0.000000, 2904.000000)">
                <g id="Group-12" transform="translate(258.000000, 284.000000)">
                    <g id="Group-15">
                        <g id="alice" transform="translate(48.000000, 396.000000)">
                            <g transform="translate(5.000000, 0.000000)" id="Group-16">
                                <g>
                                    <mask id="mask-2" fill="white">
                                        <use xlink:href="#path-1"></use>
                                    </mask>
                                    <circle stroke="#000000" stroke-width="0.808080808" cx="39.6363626" cy="39.6363626" r="40.040403"></circle>
                                    <g id="lady" mask="url(#mask-2)" stroke="#062D56" stroke-width="0.808080808">
                                        <g transform="translate(10.505051, 15.353535)">
                                            <path d="M18.0005926,16.4363169 C15.0004741,14.5555622 15.3523917,12.3182415 16.2065584,9.94992937 C17.0607251,7.58161725 17.639442,6.83712148 19.0210708,4.89299262 C20.4026997,2.94886375 23.1508058,5.16758374e-15 25.4618855,5.16758374e-15 C27.7729651,5.16758374e-15 31.9472077,5.16758374e-15 32.8738176,5.16758374e-15 C33.8004275,5.16758374e-15 36.7609508,0.883226834 36.9967463,2.7389324 C37.2325417,4.59463797 36.7609508,5.25000021 36.4421179,6.26899883 C36.1232851,7.28799745 34.9285644,8.3278294 35.6368977,8.3278294 C35.8146361,8.3278294 36.1688789,8.32185259 36.6167747,8.19779862 C37.1145473,8.05993021 37.7296166,7.79299445 38.3810385,7.58161725 C39.6186095,7.1800429 40.6159711,7.73513012 41.0552218,8.09747901 C41.8834652,8.78071768 42.6387328,10.1279597 42.3096608,11.7086297 C41.9805888,13.2892998 41.0866494,15.3629267 40.4818908,17.0841034 C39.8771323,18.8052801 39.2068553,19.9723019 39.800191,19.6509241 C40.3935267,19.3295462 42.1621111,19.1184903 42.1621111,20.457979 C42.1621111,21.7974677 40.9171418,24.2501785 39.9019902,25.3107254 C38.8868387,26.3712724 36.7907803,28.5819732 36.082447,28.9331214 C35.3741136,29.2842696 34.9558489,29.1258889 34.3963674,28.3687275 C33.8368858,27.611566 33.6024516,26.447681 33.4573285,24.8559432 C33.3122054,23.2642055 33.2614833,21.764383 33.0013034,21.0696031" id="Path"></path>
                                            <path d="M18.1425197,14.2700053 C18.4490419,12.4897022 19.0499534,11.098722 19.9940822,10.5373465 C20.9382111,9.97597104 20.7752139,10.2176851 20.7753323,10.504972 C20.7754506,10.792259 21.6548896,12.7757462 22.2697689,13.4096833 C22.8846482,14.0436203 24.608429,15.6102634 26.6778538,16.0059784 C28.7472786,16.4016934 29.3911588,15.7008174 30.7085713,15.3987932 C32.0259838,15.0967691 32.7562158,14.9662785 32.9968645,14.6383173 C33.2375132,14.3103562 34.496391,14.0815583 35.142402,14.2700053 C35.7884129,14.4584523 36.4034105,14.7990655 36.4034105,15.8315584 C36.4034105,16.8640513 35.6128684,17.5164068 34.9017533,18.0478227 C34.1906382,18.5792386 33.5131997,18.7298776 33.4234743,19.1431116 C33.333749,19.5563455 32.9154843,21.5204199 32.4187395,22.4849086 C31.9219946,23.4493972 30.3526103,24.8121459 28.9967754,25.5513741 C27.6409404,26.2906024 25.926315,27.0436801 24.6048779,26.7702425 C23.2834408,26.496805 22.1238764,25.8367079 21.1901642,24.6525223 C20.256452,23.4683366 19.3740538,21.6389095 18.9142408,20.4424132 C18.4544278,19.245917 17.8359974,16.0503084 18.1425197,14.2700053 Z" id="Path-2"></path>
                                            <path d="M21.3776642,17.0434429 C21.5599559,18.1034572 21.5680643,18.3744681 21.4718285,19.2684075 C21.3755927,20.1623469 20.6308602,20.8913361 20.74497,21.0745747 C20.8590799,21.2578133 20.9722428,21.587418 21.3755927,21.587418 C21.7613053,21.6749535 22.1192599,21.6749535 22.4927802,21.7017054" id="Path-3" stroke-linecap="round"></path>
                                            <path d="M-5.16758374e-15,63.4143018 C1.69839022,58.1571993 4.22821986,51.8551157 4.85535057,47.5854659 C5.48248128,43.3158161 5.42637332,41.3896797 5.73603242,38.8482496 C6.04569153,36.3068196 6.35227298,34.5409578 8.21685639,32.7154369 C10.0814398,30.889916 11.9221122,30.5859113 13.9234144,30.205612 C15.9016342,29.9770372 19.1484779,29.8253126 20.9081448,29.4111044 C22.6678117,28.9968961 23.518822,28.2187155 24.1085474,26.8276169" id="Path-4"></path>
                                            <path d="M24.1085474,31.3064643 C21.902463,32.1001433 19.6963786,34.8178281 19.6963786,33.9012798 C19.6963786,33.2902475 19.9747088,31.836649 20.5313692,29.5404841" id="Path-5"></path>
                                            <path d="M29.5409576,30.7101101 C27.721592,34.8368464 26.7945086,36.8945327 26.7597075,36.8831691 C25.7877614,34.6441775 25.036341,32.6541206 24.2157917,31.5518478 C23.3952424,30.4495751 23.0984858,29.4178515 23.0984858,28.4324112" id="Path-6" stroke-linecap="round" stroke-linejoin="round"></path>
                                            <path d="M34.065579,27.8374774 C32.9244805,28.6496224 29.7363885,30.5169283 29.9562038,30.6039311 C31.0832162,30.8983204 34.3527476,32.48556 35.0606075,32.8120278 C35.2588792,31.4509956 35.319722,29.7133061 35.6724683,29.5404841 C37.1813462,29.9002143 39.5446275,30.0658156 41.5338558,30.2537891 C43.3639932,30.420219 45.4921893,30.420219 46.5195331,31.4286234 C47.5468769,32.4370278 48.5786004,34.547705 48.8044527,37.716029 C49.030305,40.884353 49.2939177,44.5062754 49.2939177,47.2359157 C49.2939177,49.965556 50.4060153,62.8214987 50.4060153,65.8364136" id="Path-7" stroke-linecap="round" stroke-linejoin="round"></path>
                                            <path d="M26.3197217,36.7085715 C26.560252,38.4822458 26.6858439,42.5765879 26.6858439,44.3797366 C26.6858439,46.1828854 26.6023922,54.3573648 26.9038836,56.4380941 C27.104878,57.8252469 27.2142363,60.9580201 27.2319586,65.8364136" id="Path-8"></path>
                                            <circle id="Oval" cx="29.6967341" cy="41.7414789" r="1"></circle>
                                            <circle id="Oval-Copy" cx="29.6967341" cy="45.620267" r="1"></circle>
                                            <circle id="Oval-Copy-2" cx="29.6967341" cy="50.468752" r="1"></circle>
                                        </g>
                                    </g>
                                </g>
                            </g>
                        </g>
                    </g>
                </g>
            </g>
        </g>
    </g>
</svg>