<?xml version="1.0" encoding="UTF-8"?>
<svg width="82px" height="82px" viewBox="0 0 82 82" version="1.1" xmlns="http://www.w3.org/2000/svg" xmlns:xlink="http://www.w3.org/1999/xlink">
    <!-- Generator: sketchtool 63.1 (101010) - https://sketch.com -->
    <title>336EA3D7-66F6-46D1-BD45-6AFE19A8ACCC</title>
    <desc>Created with sketchtool.</desc>
    <defs>
        <circle id="path-1" cx="39.6363626" cy="39.6363671" r="39.6363626"></circle>
    </defs>
    <g id="Page-1" stroke="none" stroke-width="1" fill="none" fill-rule="evenodd">
        <g id="web_05_02" transform="translate(-557.000000, -3583.000000)">
            <g id="how-works" transform="translate(0.000000, 2904.000000)">
                <g id="Group-12" transform="translate(258.000000, 284.000000)">
                    <g id="Group-15-Copy-2" transform="translate(246.000000, 0.000000)">
                        <g id="Group-8" transform="translate(48.000000, 396.000000)">
                            <g id="bob" transform="translate(6.000000, 0.000000)">
                                <g>
                                    <circle id="Mask-Copy-4" stroke="#000000" stroke-width="0.808080808" fill="#FFFFFF" transform="translate(39.636363, 39.636363) scale(-1, -1) translate(-39.636363, -39.636363) " cx="39.6363626" cy="39.6363626" r="40.040403"></circle>
                                    <g id="doodle">
                                        <mask id="mask-2" fill="white">
                                            <use xlink:href="#path-1"></use>
                                        </mask>
                                        <circle stroke="#000000" stroke-width="0.808080808" cx="39.6363626" cy="39.6363671" r="40.040403"></circle>
                                        <g id="guy" mask="url(#mask-2)" stroke="#062D56" stroke-width="0.808080808">
                                            <g transform="translate(13.171729, 12.929293)">
                                                <path d="M21.1818379,20.9790816 C21.1818379,19.7709061 20.5411537,18.3838914 19.9266098,16.4978434 C19.312066,14.6117954 18.1547901,11.2532589 17.7779751,9.8809913 C17.40116,8.5087237 17.8391335,8.0718846 18.4373027,7.31075771 C19.0354719,6.54963082 20.3407611,5.06293771 22.2812105,4.20223104 C24.22166,3.34152436 25.0467073,3.12870279 26.2878788,3.02285919 C27.5290503,2.9170156 28.3146899,3.15711188 29.7609888,2.85565986 C31.2072877,2.55420784 32.1115945,1.87959057 33.2014481,1.20793258 C34.2913017,0.536274597 35.670277,-0.313827991 37.144837,0.116747293 C38.6193971,0.547322577 39.2331025,2.0132514 39.0862729,3.57007944 C38.9394433,5.12690749 38.2173295,6.63860651 36.4421559,7.73571036 C34.6669823,8.83281421 30.4156802,11.3880541 29.5977352,11.9031662 C28.7797901,12.4182782 27.9483803,13.1038942 27.4225162,13.4849015 C26.8966521,13.8659088 26.2998639,15.1006192 26.0950817,14.6991435 C25.8881293,14.0456851 25.6953322,13.6605841 25.0241675,13.6605841 C24.3530027,13.6605841 23.5180911,14.2647212 23.5180911,14.9502878 C23.5180911,15.6358544 23.7957702,15.8204641 24.450363,16.1838638 C25.1049558,16.5472634 25.7595486,16.0134092 25.1049558,17.2809676 C24.450363,18.548526 23.6188052,19.280652 22.9031526,20.0664395 C22.1875,20.8522271 21.1818379,22.1872571 21.1818379,20.9790816 Z" id="Path-9" stroke-linecap="round" stroke-linejoin="round"></path>
                                                <path d="M24.5702139,22.2244454 C25.6985874,22.6298668 26.4086174,23.1665816 28.6391256,22.993661 C30.8696338,22.8207403 32.5588897,21.2470937 33.3405342,19.6777874 C34.1221788,18.108481 34.8198785,16.2955273 35.1677912,14.1532056 C35.5157039,12.010884 35.4351128,9.41421415 35.1677912,8.58551702" id="Path-10" stroke-linecap="round" stroke-linejoin="round"></path>
                                                <path d="M21.2077809,21.2016195 C20.5932371,22.2627187 20.1420455,23.5708193 19.7075245,24.1437359 C19.2730035,24.7166526 18.2667495,25.8762959 17.2322838,26.1872176 C16.197818,26.4981393 14.5852075,27.1672326 13.1094145,28.2693672 C11.6336214,29.3715019 10.2080374,30.9592544 8.60982876,32.8060426 C7.01162011,34.6528308 4.93815104,39.328395 3.85643545,42.6365745 C2.77471985,45.9447539 1.367878,53.29896 1.05971828,55.7506251 C0.751558554,58.2022902 0,65.7418459 0,66.5426272" id="Path-11" stroke-linecap="round" stroke-linejoin="round"></path>
                                                <path d="M27.5019729,23.0269776 C27.2486585,24.8180573 26.9294508,25.5812557 27.2157118,26.973597 C27.5019729,28.3659384 28.0423374,28.8356748 29.4349747,30.4361523 C30.8276121,32.0366297 32.3034051,33.0059913 33.3310646,35.1700143 C34.358724,37.3340374 35.4857165,40.5833272 35.871508,43.3541013 C36.2572996,46.1248754 36.6358902,52.0483682 40.4040404,55.841771" id="Path-12" stroke-linecap="round" stroke-linejoin="round"></path>
                                                <path d="M14.8011364,27.1378371 C17.1157868,27.7006922 17.82631,28.0301588 18.9890112,28.6568357 C20.1517124,29.2835126 21.3709359,30.4683098 23.227983,31.4579918 C25.08503,32.4476737 25.3442065,32.8036752 26.9142598,32.8036752 C28.484313,32.8036752 29.0336963,31.9751753 29.2683673,30.3364245" id="Path-13" stroke-linecap="round" stroke-linejoin="round"></path>
                                                <path d="M10.7645794,37.2254318 C10.4777265,39.4768522 10.1934383,40.9142733 9.96873027,45.2457719 C9.83166222,47.887912 10.2078401,51.444675 10.8907434,54.0237864 C11.9832768,58.1499426 13.6572759,60.2572145 14.0741398,61.0465532" id="Path-14" stroke-linecap="round" stroke-linejoin="round"></path>
                                                <path d="M20.2314157,38.9985339 C19.6866451,41.5888906 19.4693682,44.1276243 19.5795849,46.614735 C19.8198785,50.1678442 20.5539773,53.4009566 21.5112058,55.4811333" id="Path-15"></path>
                                            </g>
                                        </g>
                                    </g>
                                </g>
                            </g>
                        </g>
                    </g>
                </g>
            </g>
        </g>
    </g>
</svg>