<?xml version="1.0" encoding="UTF-8"?>
<svg width="101px" height="101px" viewBox="0 0 101 101" version="1.1" xmlns="http://www.w3.org/2000/svg" xmlns:xlink="http://www.w3.org/1999/xlink">
    <!-- Generator: sketchtool 63.1 (101010) - https://sketch.com -->
    <title>B305EA87-4B61-43CA-B3C4-E11E3068627A</title>
    <desc>Created with sketchtool.</desc>
    <defs>
        <circle id="path-1" cx="49.0499987" cy="49.0500043" r="49.0499987"></circle>
    </defs>
    <g id="Page-1" stroke="none" stroke-width="1" fill="none" fill-rule="evenodd">
        <g id="web_05_02" transform="translate(-971.000000, -4786.000000)">
            <g id="explainer-diagram" transform="translate(0.000000, 4453.000000)">
                <g id="Group-3" transform="translate(972.000000, 334.000000)">
                    <g id="bob">
                        <g>
                            <circle id="Mask-Copy-4" stroke="#000000" fill="#FFFFFF" transform="translate(49.049999, 49.049999) scale(-1, -1) translate(-49.049999, -49.049999) " cx="49.0499987" cy="49.0499987" r="49.5499987"></circle>
                            <g id="doodle">
                                <mask id="mask-2" fill="white">
                                    <use xlink:href="#path-1"></use>
                                </mask>
                                <circle stroke="#000000" cx="49.0499987" cy="49.0500043" r="49.5499987"></circle>
                                <g id="guy" mask="url(#mask-2)" stroke="#062D56">
                                    <g transform="translate(16.300014, 16.000000)">
                                        <path d="M26.2125244,25.9616134 C26.2125244,24.4664963 25.4196777,22.7500656 24.6591797,20.4160812 C23.8986816,18.0820968 22.4665527,13.9259079 22.0002441,12.2277267 C21.5339355,10.5295456 22.0759277,9.9889572 22.8161621,9.04706267 C23.5563965,8.10516813 25.1716919,6.26538542 27.572998,5.20026091 C29.9743042,4.1351364 30.9953003,3.8717697 32.53125,3.74078825 C34.0671997,3.60980681 35.0394287,3.90692595 36.8292236,3.53387907 C38.6190186,3.1608322 39.7380981,2.32599333 41.086792,1.49481657 C42.4354858,0.663639814 44.1419678,-0.388362139 45.9667358,0.144474775 C47.7915039,0.677311689 48.5509644,2.4913986 48.3692627,4.41797331 C48.187561,6.34454802 47.2939453,8.21527556 45.097168,9.57294157 C42.9003906,10.9306076 37.6394043,14.092717 36.6271973,14.7301681 C35.6149902,15.3676193 34.5861206,16.216069 33.9353638,16.6875656 C33.2846069,17.1590622 32.5460815,18.6870163 32.2926636,18.1901901 C32.0365601,17.3815353 31.7979736,16.9049728 30.9674072,16.9049728 C30.1368408,16.9049728 29.1036377,17.6525925 29.1036377,18.5009811 C29.1036377,19.3493698 29.4472656,19.5778244 30.2573242,20.0275314 C31.0673828,20.4772384 31.8774414,19.8165939 31.0673828,21.3851974 C30.2573242,22.9538009 29.2282715,23.8598068 28.3426514,24.8322189 C27.4570313,25.804631 26.2125244,27.4567306 26.2125244,25.9616134 Z" id="Path-9" stroke-linecap="round" stroke-linejoin="round"></path>
                                        <path d="M30.4056396,27.5027511 C31.802002,28.0044601 32.6806641,28.6686447 35.440918,28.4546554 C38.2011719,28.2406662 40.291626,26.2932785 41.2589111,24.3512619 C42.2261963,22.4092453 43.0895996,20.165715 43.5201416,17.514592 C43.9506836,14.8634689 43.8509521,11.65009 43.5201416,10.6245773" id="Path-10" stroke-linecap="round" stroke-linejoin="round"></path>
                                        <path d="M26.2446289,26.2370041 C25.4841309,27.5501144 24.9257812,29.1688888 24.3880615,29.8778732 C23.8503418,30.5868576 22.6051025,32.0219162 21.3249512,32.4066818 C20.0447998,32.7914474 18.0491943,33.6194504 16.2229004,34.983342 C14.3966064,36.3472336 12.6324463,38.3120773 10.6546631,40.5974777 C8.67687988,42.8828781 6.11096191,48.6688888 4.77233887,52.7627609 C3.43371582,56.856633 1.69274902,65.9574631 1.31140137,68.9913986 C0.930053711,72.0253342 0,81.3555343 0,82.3465011" id="Path-11" stroke-linecap="round" stroke-linejoin="round"></path>
                                        <path d="M34.0336914,28.4958848 C33.7202148,30.7123459 33.3251953,31.6568039 33.6794434,33.3798263 C34.0336914,35.1028488 34.7023926,35.6841476 36.4257813,37.6647384 C38.1491699,39.6453293 39.9754639,40.8449142 41.2471924,43.5228927 C42.5189209,46.2008713 43.9135742,50.2218674 44.3909912,53.6507004 C44.8684082,57.0795334 45.3369141,64.4098556 50,69.1041916" id="Path-12" stroke-linecap="round" stroke-linejoin="round"></path>
                                        <path d="M18.3164062,33.5830734 C21.1807861,34.2796066 22.0600586,34.6873215 23.4989014,35.4628342 C24.9377441,36.2383468 26.4465332,37.7045334 28.7446289,38.9292648 C31.0427246,40.1539963 31.3634556,40.594548 33.3063965,40.594548 C35.2493374,40.594548 35.9291992,39.5692795 36.2196045,37.5413254" id="Path-13" stroke-linecap="round" stroke-linejoin="round"></path>
                                        <path d="M13.321167,46.0664718 C12.9661865,48.8526047 12.6143799,50.6314133 12.3363037,55.9916427 C12.166682,59.2612911 12.6322021,63.6627853 13.4772949,66.8544357 C14.829305,71.960554 16.9008789,74.5683029 17.416748,75.5451095" id="Path-14" stroke-linecap="round" stroke-linejoin="round"></path>
                                        <path d="M25.036377,48.2606857 C24.3622233,51.4662521 24.0933431,54.6079351 24.2297363,57.6857345 C24.5270996,62.0827072 25.4355469,66.0836838 26.6201172,68.6579025" id="Path-15"></path>
                                    </g>
                                </g>
                            </g>
                        </g>
                    </g>
                </g>
            </g>
        </g>
    </g>
</svg>