<?xml version="1.0" encoding="UTF-8"?>
<svg width="126px" height="291px" viewBox="0 0 126 291" version="1.1" xmlns="http://www.w3.org/2000/svg" xmlns:xlink="http://www.w3.org/1999/xlink">
    <title>Group 21</title>
    <defs>
        <circle id="path-1" cx="39.6363626" cy="39.6363671" r="39.6363626"></circle>
    </defs>
    <g id="Page-1" stroke="none" stroke-width="1" fill="none" fill-rule="evenodd">
        <g id="web_05_01" transform="translate(-780.000000, -3236.000000)">
            <g id="how-works" transform="translate(0.000000, 2904.000000)">
                <g id="Group-21" transform="translate(781.000000, 332.000000)">
                    <rect id="Rectangle" fill="#F0F0F0" x="0" y="0" width="124" height="110" rx="10"></rect>
                    <g id="Group-8" transform="translate(16.000000, 15.000000)">
                        <g id="Group" transform="translate(6.000000, 0.000000)">
                            <g id="bob-fill" transform="translate(-0.808081, -0.808081)">
                                <circle id="Mask-Copy-4" fill="#FFFFFF" transform="translate(40.444443, 40.444443) scale(-1, -1) translate(-40.444443, -40.444443) " cx="40.4444434" cy="40.4444434" r="39.6363626"></circle>
                                <path d="M40.4444434,0 C18.1075941,0 0,18.1075941 0,40.4444434 C0,62.7812927 18.1075941,80.8888868 40.4444434,80.8888868 C62.7812927,80.8888868 80.8888868,62.7812927 80.8888868,40.4444434 C80.8888868,18.1075941 62.7812927,0 40.4444434,0 Z M40.4444434,0.808080808 C62.335002,0.808080808 80.080806,18.5538848 80.080806,40.4444434 C80.080806,62.335002 62.335002,80.080806 40.4444434,80.080806 C18.5538848,80.080806 0.808080808,62.335002 0.808080808,40.4444434 C0.808080808,18.5538848 18.5538848,0.808080808 40.4444434,0.808080808 Z" id="Mask-Copy-5" fill="#000000" fill-rule="nonzero" transform="translate(40.444443, 40.444443) scale(-1, -1) translate(-40.444443, -40.444443) "></path>
                                <g id="doodle" transform="translate(0.808081, 0.808081)">
                                    <mask id="mask-2" fill="white">
                                        <use xlink:href="#path-1"></use>
                                    </mask>
                                    <circle stroke="#000000" stroke-width="0.808080808" cx="39.6363626" cy="39.6363671" r="40.040403"></circle>
                                    <g id="guy" mask="url(#mask-2)" fill="#062D56" fill-rule="nonzero">
                                        <g transform="translate(12.363648, 12.121212)">
                                            <path d="M24.0707265,21.0802688 L24.816702,20.2886927 C24.8435243,20.2596484 24.8697166,20.2311006 24.8958386,20.2024384 C25.4823781,19.558859 25.9053462,18.9844957 26.2720326,18.2744412 C26.5299391,17.7750292 26.6263397,17.4937269 26.575753,17.2419524 C26.5115161,16.9222401 26.3412931,16.8229225 26.0165189,16.7699353 L25.7302139,16.7289364 C25.6294732,16.7118221 25.5664584,16.6937351 25.502912,16.6636629 L25.4545547,16.6386895 C24.8005397,16.2756106 24.7302123,16.1931797 24.7302123,15.7583686 C24.7302123,15.3527041 25.3235417,14.8727053 25.8322483,14.8727053 C26.2092192,14.8727053 26.3167577,14.9938551 26.5179778,15.6292135 C26.7751848,16.1455401 27.1850363,16.0575674 27.4986234,15.7496747 C27.5560918,15.6932499 27.615001,15.6272733 27.6825842,15.5449556 L28.0031678,15.1325027 C28.1179794,14.9837746 28.2029908,14.8798066 28.2830898,14.7926308 C28.354366,14.7150574 28.4163733,14.6573259 28.467656,14.6201698 L29.7072307,13.6846732 L29.773553,13.6356561 C29.9765902,13.4868871 30.165279,13.3536498 30.34478,13.2331324 L31.2070108,12.6906222 L36.3314882,9.58079833 C36.7927307,9.29961707 37.1601331,9.07445394 37.4626514,8.88748966 C39.2107277,7.80713264 40.1216913,6.2707434 40.296609,4.41609829 C40.4714316,2.56246244 39.6613013,1.00276698 38.0661692,0.536984348 C36.8934621,0.194550884 35.8326453,0.482859479 34.437501,1.28648816 L34.0375924,1.52457628 L32.9863587,2.18118691 C32.0181962,2.78361432 31.3637549,3.08538097 30.4866272,3.26820065 C29.8725256,3.39619782 29.4403332,3.42785627 28.7245522,3.41562182 L27.8786433,3.39785588 C27.5709711,3.39576124 27.3433287,3.40433819 27.0616288,3.42836076 C25.7097892,3.54364182 24.8239363,3.79888834 22.9254677,4.64097399 C21.3761269,5.32820033 20.1486741,6.38013313 19.1289225,7.61897044 L18.7054502,8.1504618 L18.5573735,8.3453044 C18.5356161,8.37505205 18.5149831,8.40392036 18.4949694,8.43263492 C18.0175193,9.11765346 17.9128609,9.76334261 18.1964374,10.7960586 L18.2997844,11.1579678 C18.4167567,11.5549715 18.5757286,12.0611412 18.7868149,12.7114163 L20.2610864,17.1577827 L20.4237225,17.6531735 C20.5445593,18.0158232 21.1110795,19.6180965 21.2351788,20.0089065 C21.4476316,20.6779575 21.5594865,21.1824025 21.5817202,21.6242181 L21.5858783,21.7871624 C21.5858783,22.4860429 21.981929,22.8776125 22.552856,22.5850107 C22.7607022,22.4784889 22.9729361,22.2928076 23.266637,21.9789255 L23.6129719,21.5948665 L24.009953,21.1465779 L24.0707265,21.0802688 Z M24.2225966,19.7409377 L23.4125139,20.6024628 L22.7875172,21.3061664 C22.6795469,21.42467 22.584573,21.5243708 22.501714,21.6059441 L22.3919192,21.7082828 L22.3939591,21.7871624 C22.3939591,21.271039 22.2938893,20.7259737 22.0876781,20.0318556 L22.0053617,19.7643398 C21.9650716,19.6374595 21.881789,19.3930248 21.7827514,19.1061916 L21.1400621,17.2455574 L19.580508,12.539084 C19.2890626,11.6429715 19.095449,11.0182755 18.9756743,10.5820856 C18.7549061,9.77810218 18.8193646,9.38042606 19.1579115,8.89469802 L19.2714997,8.73954076 L19.5630593,8.36849975 C20.5475636,7.11578945 21.7418577,6.04998373 23.253115,5.3796497 C25.0753085,4.5713967 25.8770189,4.34039468 27.1302904,4.23351924 L27.3751371,4.21622476 C27.534206,4.20760854 27.6912628,4.20461738 27.8841811,4.20604049 L28.4528437,4.21777195 C29.3819642,4.24304553 29.8950568,4.2169486 30.651512,4.05928068 C31.5559642,3.87076574 32.2476697,3.57086079 33.158971,3.02296556 L34.6296306,2.11086296 C35.9592085,1.31440763 36.8822377,1.03310022 37.8396665,1.31267185 C39.0195228,1.65719291 39.6336357,2.8395078 39.4920984,4.34022221 C39.3404046,5.9486241 38.565121,7.2561819 37.0378221,8.20009268 L34.7032161,9.62508765 L30.0829844,12.4379446 C29.8979945,12.5574253 29.7067446,12.6882657 29.5034575,12.8335759 L29.2959442,12.9838246 C29.0181069,13.187401 28.139957,13.859709 27.9935379,13.9657948 C27.892652,14.0388903 27.7930012,14.1316694 27.688049,14.2458941 C27.6137053,14.3268061 27.5401931,14.4142083 27.4541803,14.5226791 L27.1264646,14.9454545 L27.1109654,14.9071222 C26.856735,14.3277773 26.5045126,14.0646245 25.8322483,14.0646245 C24.9104911,14.0646245 23.9221315,14.8641996 23.9221315,15.7583686 C23.9221315,16.5538322 24.1788474,16.8547294 25.0623329,17.3451997 L25.1474987,17.3900041 C25.2794049,17.4551453 25.3947174,17.4904788 25.5557839,17.519224 L25.7244444,17.5450505 L25.6508991,17.7085803 C25.623583,17.7660449 25.5914688,17.8311794 25.5540406,17.9036556 C25.2650317,18.4632946 24.9359538,18.931059 24.4947485,19.4380524 L24.2225966,19.7409377 Z" id="Path-9"></path>
                                            <path d="M35.8518305,9.0090691 C36.0641998,8.94056285 36.2918945,9.05718695 36.3604007,9.2695563 C36.6791133,10.2575651 36.7060428,12.9856872 36.3746875,15.026054 C36.0527708,17.0083018 35.4284388,18.8226133 34.5102767,20.6660056 C33.555767,22.5823731 31.6561952,24.0357422 29.478436,24.2045734 C28.0303107,24.3168397 27.2263622,24.1880781 26.1388674,23.7671317 L25.5120505,23.5149303 C25.4139437,23.4762595 25.329305,23.444253 25.2416749,23.4127678 C25.0316733,23.3373148 24.9226,23.1059081 24.998053,22.8959064 C25.073506,22.6859048 25.3049127,22.5768316 25.5149144,22.6522845 L25.8054351,22.7619769 L26.2221971,22.9306731 C27.3177243,23.3769951 28.0068767,23.5081509 29.4159768,23.3989101 C31.2902757,23.2536047 32.9518806,21.9823048 33.7869534,20.3057307 C34.6709351,18.5309624 35.2691345,16.7925922 35.5770565,14.8965189 C35.8897167,12.9712696 35.863968,10.3627761 35.5913433,9.51763936 C35.522837,9.30527 35.6394611,9.07757534 35.8518305,9.0090691 Z" id="Path-10"></path>
                                            <path d="M21.6662265,21.8072063 C21.7780608,21.614108 22.0252575,21.5482306 22.2183557,21.660065 C22.411454,21.7718993 22.4773314,22.019096 22.365497,22.2121942 C22.2634395,22.3884115 22.1615934,22.579312 22.05423,22.7940133 L21.9448155,23.0169858 C21.824435,23.2666131 21.4411814,24.1020949 21.3832221,24.22428 L21.2308061,24.5363227 C21.0864414,24.8214906 20.9635103,25.0298695 20.8375293,25.1959757 C20.0610878,26.219715 19.1084742,27.0961606 18.1566644,27.382239 C16.8735833,27.7678852 15.3993748,28.4750458 14.1592577,29.4011756 L13.8837147,29.6124197 C12.7393096,30.5129308 11.6196716,31.6873446 9.72343009,33.8785206 C8.30805786,35.5140346 6.25937526,39.8671891 5.04854807,43.5702268 C4.14312905,46.3392436 2.74346045,53.1049173 2.30676009,56.3184621 L2.20792545,57.1085162 C1.86344823,60.0174339 1.21212121,66.6505647 1.21212121,67.350708 C1.21212121,67.5738533 1.03122616,67.7547484 0.808080808,67.7547484 C0.584935455,67.7547484 0.404040404,67.5738533 0.404040404,67.350708 L0.411456929,67.1442777 C0.489320277,65.6992021 1.16018029,58.9486296 1.46691307,56.508317 L1.54983344,55.8976098 C2.03588002,52.531894 3.38668427,46.0525669 4.28048444,43.3190837 C5.52207236,39.5219714 7.60962391,35.086226 9.11238904,33.3497262 L9.77509725,32.5895685 C11.4596313,30.6739433 12.5134607,29.621715 13.6757328,28.7537205 C14.9961522,27.7676202 16.5550643,27.0198282 17.9240647,26.6083579 C18.6636986,26.3860516 19.5142034,25.6035506 20.1936813,24.7076578 C20.3029861,24.5635392 20.425293,24.3472711 20.5831993,24.0234296 L21.2169495,22.6659792 C21.3740265,22.3402559 21.5187107,22.0619136 21.6662265,21.8072063 Z" id="Path-11"></path>
                                            <path d="M28.2938117,23.4312744 L28.3666345,23.4349994 C28.587581,23.4662481 28.7413614,23.6706927 28.7101127,23.8916392 L28.6064743,24.5584604 C28.5483211,24.9019269 28.4467244,25.4779983 28.4410615,25.5115077 L28.386981,25.8519655 C28.3566547,26.0596943 28.3372957,26.2338541 28.3259814,26.4039454 C28.2973208,26.8348055 28.3239035,27.2350718 28.4195551,27.7003103 C28.5356361,28.264915 28.6930216,28.6601595 28.9566167,29.0658175 C29.1069673,29.2971986 29.2960256,29.5403056 29.5812146,29.8740185 L30.5478601,30.9790109 C30.6951682,31.1483035 30.8489572,31.3168028 31.0173521,31.4941873 L31.3753442,31.8630278 L31.9803505,32.4669762 C33.2646095,33.7472306 33.9089763,34.5515275 34.5041224,35.8047735 C35.6137319,38.1413653 36.6042663,41.1670254 37.0136512,43.6703653 L37.082259,44.1243909 L37.2660327,45.5612245 C37.3501876,46.2188744 37.4254408,46.751028 37.5141638,47.292261 C37.7503955,48.7333351 38.0516476,50.0205691 38.4669878,51.2381559 C39.1660095,53.2873663 40.1506618,55.0079617 41.4987734,56.3651078 C41.6560332,56.5234214 41.6551789,56.7792442 41.4968652,56.936504 C41.3385516,57.0937638 41.0827287,57.0929094 40.925469,56.9345958 C39.4830661,55.4825266 38.4381952,53.6567043 37.7021798,51.4990454 C37.2707835,50.2343896 36.9596792,48.9050578 36.7167264,47.4229829 L36.630061,46.8696264 C36.6021655,46.683036 36.5749819,46.4926233 36.5476673,46.2933353 L36.2794089,44.2179016 C35.9321973,41.7242104 34.9156899,38.5552085 33.7741683,36.1514168 C33.2618777,35.0726463 32.707904,34.3537195 31.632104,33.2626581 L30.7037261,32.332681 L30.6111707,32.2378212 C30.4249286,32.0460155 30.2559119,31.8659608 30.095759,31.6876101 L28.9669008,30.3990072 C28.6607653,30.0407838 28.4520777,29.7724358 28.2790234,29.5061151 C27.9587984,29.0133067 27.7638806,28.523807 27.6280301,27.8630454 C27.5176509,27.3261734 27.486235,26.853133 27.5196824,26.3503108 C27.532421,26.1588097 27.5536925,25.9666778 27.5863637,25.7420803 L27.6678634,25.2418726 C27.7113238,24.9937666 27.8018813,24.4765348 27.8353453,24.26975 C27.8622987,24.1031968 27.8869334,23.9415338 27.9099946,23.7784776 C27.9377712,23.5820807 28.102394,23.4387533 28.2938117,23.4312744 Z" id="Path-12"></path>
                                            <path d="M15.7046859,27.5533184 L16.2753739,27.6951195 C17.9779346,28.1288461 18.7370178,28.4345626 19.9887914,29.1092481 L20.1554438,29.2065324 C20.8964855,29.6615915 22.7337199,31.0006501 22.9348239,31.1342674 C23.3696765,31.4231919 23.7910451,31.6776576 24.2260893,31.9095071 L24.4510682,32.0304296 L25.4603501,32.5902825 C25.8297327,32.7944383 26.0566605,32.9073738 26.2773586,32.9923986 C26.6765234,33.1461784 27.0738649,33.2077156 27.7223406,33.2077156 C28.9745258,33.2077156 29.4501422,32.6678437 29.6764878,31.0872306 C29.7081197,30.8663386 29.9128309,30.7129131 30.1337228,30.744545 C30.3546148,30.776177 30.5080404,30.9808881 30.4764084,31.2017801 C30.1983758,33.1433335 29.4297533,34.0157964 27.7223406,34.0157964 C26.9812059,34.0157964 26.4875165,33.9393376 25.9868551,33.7464558 C25.7987525,33.6739885 25.6150132,33.5885885 25.3798712,33.4652852 L24.066267,32.7410094 C23.9932352,32.7014205 23.920428,32.6622828 23.8460382,32.622638 C23.5014676,32.4390049 23.1658891,32.2424616 22.8274545,32.0279783 L22.487629,31.8073286 C22.2282271,31.6349769 20.1239015,30.1000527 19.6053926,29.8205848 L19.2426187,29.6285333 C18.1353001,29.0547592 17.3714675,28.7902602 15.5137485,28.3385174 C15.2969218,28.2857915 15.1638918,28.0672759 15.2166177,27.8504492 C15.2634851,27.6577143 15.4413469,27.5311892 15.6325775,27.5424831 L15.7046859,27.5533184 Z" id="Path-13"></path>
                                            <path d="M11.6237261,37.6327122 C11.845082,37.6609151 12.0016635,37.8632225 11.9734606,38.0845785 L11.6916357,40.1908683 C11.4416762,42.1055355 11.3120042,43.5362113 11.1803089,46.0747852 C11.0457266,48.6690101 11.415658,52.1839182 12.0894048,54.7284484 C12.4042578,55.9175496 12.7845782,57.0009726 13.221893,58.0011519 C13.5340476,58.7150785 13.8587301,59.3526118 14.2157366,59.9751439 L14.4339777,60.3473541 C14.5637954,60.5641047 15.1480902,61.4928682 15.2394976,61.6659496 C15.3437051,61.8632682 15.2682237,62.1077034 15.070905,62.211911 C14.8735864,62.3161185 14.6291512,62.240637 14.5249437,62.0433184 L14.458999,61.9295227 C14.2863683,61.6411593 13.8627074,60.9662277 13.740726,60.762561 C13.2791754,59.9919313 12.8708186,59.2153076 12.4814921,58.324882 C12.0278406,57.2873391 11.6338222,56.1648944 11.3082436,54.9352861 C10.6131277,52.3100514 10.2343675,48.7112562 10.3733133,46.0329202 L10.4441817,44.7724172 C10.5483152,43.0761395 10.6643107,41.8643535 10.8467804,40.4248331 L11.1718598,37.9824467 C11.1969291,37.7856859 11.3595624,37.6401049 11.550859,37.6299905 L11.6237261,37.6327122 Z" id="Path-14"></path>
                                            <path d="M20.6441054,39.7234611 L21.4348876,39.8897683 C20.8969944,42.4474234 20.6826192,44.9522522 20.7907853,47.3955532 C21.0138787,50.6943317 21.6750218,53.7866597 22.5728796,55.8657608 L22.6863302,56.1203128 L21.952243,56.4581155 C20.9514306,54.2832255 20.2230923,50.9773502 19.9840215,47.4407034 C19.8808743,45.113123 20.0605478,42.7420077 20.5226863,40.3278869 L20.6441054,39.7234611 Z" id="Path-15"></path>
                                        </g>
                                    </g>
                                </g>
                            </g>
                        </g>
                        <text id="Bob" font-family="Helvetica" font-size="17" font-weight="normal" line-spacing="25" letter-spacing="0.53125" fill="#062D56">
                            <tspan x="29.1291003" y="111.799997">Bob</tspan>
                        </text>
                    </g>
                    <g id="Group" transform="translate(46.636363, 165.636367)">
                        <g id="cir+tick" transform="translate(-1.000000, -1.000000)">
                            <path d="M16,0 C7.163444,0 0,7.163444 0,16 C0,24.836556 7.163444,32 16,32 C24.836556,32 32,24.836556 32,16 C32,7.163444 24.836556,0 16,0 Z M16,1 C24.2842712,1 31,7.71572875 31,16 C31,24.2842712 24.2842712,31 16,31 C7.71572875,31 1,24.2842712 1,16 C1,7.71572875 7.71572875,1 16,1 Z" id="Mask-fills" fill="#000000" fill-rule="nonzero" transform="translate(16.000000, 16.000000) scale(-1, -1) translate(-16.000000, -16.000000) "></path>
                            <g id="Page-1" transform="translate(1.363637, 1.363633)" fill="#F5775B">
                                <polygon points="23.0206875 8 11.7200625 19.1473077 7.8703125 14.1626923 6 15.3101923 10.973625 23 11.8455 23 24.0005625 9.155"></polygon>
                            </g>
                        </g>
                    </g>
                    <g id="button" transform="translate(0.000000, 252.000000)">
                        <rect id="Rectangle" stroke="#CDCDCD" fill="#F4F1EC" x="0" y="0" width="124" height="38" rx="19"></rect>
                        <text id="confirm" font-family="Helvetica" font-size="13" font-weight="normal" fill="#062D56">
                            <tspan x="31.6708984" y="24">CONFIRM</tspan>
                        </text>
                    </g>
                </g>
            </g>
        </g>
    </g>
</svg>
