<?xml version="1.0" encoding="UTF-8"?>
<svg width="26px" height="26px" viewBox="0 0 26 26" version="1.1" xmlns="http://www.w3.org/2000/svg" xmlns:xlink="http://www.w3.org/1999/xlink">
    <!-- Generator: sketchtool 63.1 (101010) - https://sketch.com -->
    <title>0F48D71A-8978-4C16-AAA6-81543A6F887A</title>
    <desc>Created with sketchtool.</desc>
    <g id="Page-1" stroke="none" stroke-width="1" fill="none" fill-rule="evenodd">
        <g id="web_05_01" transform="translate(-907.000000, -1074.000000)">
            <g id="explainer-diagram" transform="translate(0.000000, 767.000000)">
                <g id="Group-7" transform="translate(398.000000, 270.000000)">
                    <g id="cir-+-key" transform="translate(496.000000, 23.000000)">
                        <g id="key2" transform="translate(13.000000, 13.000000)">
                            <g>
                                <polygon id="Path-2" fill="#FFFFFF" points="0.692261696 23.7000012 0.868531227 26.5907483 3.94372654 26.5907483 4.18127537 24.0404553 5.90368748 24.0404553 5.90368748 22.5171399 7.50830173 22.2926526 7.50830173 20.5887952 9.34875584 20.5887952 13.326539 16.604054 14.8736582 17.2437024 16.3793955 15.8984302 11.1647959 10.7401624 10.000001 12.2166028 10.2980951 13.7000012"></polygon>
                                <path d="M12.074686,17.8225211 C11.8466764,17.5933589 11.4781528,17.5933589 11.2501432,17.8213685 L9.0885121,19.9847535 L7.5805419,19.9847535 C7.25807121,19.9847535 6.99743871,20.2459873 6.99743871,20.568458 L6.99743871,21.7352657 L5.83118222,21.7352657 C5.50871153,21.7352657 5.24807904,21.9964996 5.24807904,22.3189703 L5.24807904,23.485778 L4.08187266,23.485778 C3.76000331,23.485778 3.49876947,23.7470118 3.49876947,24.0694825 L3.49876947,25.5786053 L3.25737998,25.8200449 L1.16625649,25.8200449 L1.16625649,23.7278189 L10.9078782,13.9780289 C11.1358878,13.7506207 11.1358878,13.3808944 10.9084796,13.1529349 L10.7376478,12.9815018 C10.5819498,12.8264051 10.4968095,12.6199437 10.4968095,12.4001024 L10.4968095,12.3977471 C10.4968095,12.0752764 10.236177,11.8151952 9.91370634,11.8151952 C9.59123564,11.8151952 9.33060315,12.0775816 9.33060315,12.4000523 C9.33060315,12.8158315 9.45713594,13.2123176 9.6921612,13.5447105 L0.170831795,23.0735066 C0.0612368595,23.1831516 0,23.3312326 0,23.4863793 L0,26.4043006 C0,26.72617 0.261233837,26.9874038 0.583103189,26.9874038 L3.49871936,26.9874038 C3.65326475,26.9874038 3.80194705,26.9256157 3.91099075,26.816572 L4.49409394,26.2328675 C4.60373899,26.1232225 4.66492573,25.9751415 4.66492573,25.8205961 L4.66492573,24.6537884 L5.83118222,24.6537884 C6.15365292,24.6537884 6.41428541,24.3925546 6.41428541,24.0700839 L6.41428541,22.9032761 L7.5805419,22.9032761 C7.9030126,22.9032761 8.16364509,22.6420423 8.16364509,22.3195716 L8.16364509,21.1527639 L9.32990158,21.1527639 C9.48499821,21.1527639 9.63312927,21.0909758 9.74217298,20.9819321 L12.0746358,18.6477153 C12.3026955,18.4196055 12.3026955,18.0504805 12.074686,17.8225211 Z" id="Path" fill="#F5A623" fill-rule="nonzero"></path>
                                <path d="M11.7769854,20.2790651 L14.5076476,17.5777983 C14.7356572,17.3503901 14.7356572,16.9806638 14.508249,16.7527043 L14.3374172,16.5812711 C14.1817192,16.4261745 14.0965789,16.2197131 14.0965789,15.9998718 L14.0965789,15.9975165 C14.0965789,15.6750458 13.8359464,15.4149645 13.5134757,15.4149645 C13.191005,15.4149645 12.9303725,15.677351 12.9303725,15.9998217 C12.9303725,16.4156009 13.0569053,16.812087 13.2919306,17.1444799 L10.7815607,19.6247528 L11.7769854,20.2790651 Z" id="Shape-Copy" fill="#F5A623" fill-rule="nonzero" transform="translate(12.730145, 17.847015) scale(1, -1) rotate(-270.000000) translate(-12.730145, -17.847015) "></path>
                                <path d="M12.878783,4.5873916 L22.1495024,4.5873916 C22.7030242,4.5873916 23.1517423,5.0361097 23.1517423,5.58963153 L23.1517423,13.356991 C23.1517423,13.9105128 22.7030242,14.3592309 22.1495024,14.3592309 L12.878783,14.3592309 C12.3252612,14.3592309 11.8765431,13.9105128 11.8765431,13.356991 L11.8765431,5.58963153 C11.8765431,5.0361097 12.3252612,4.5873916 12.878783,4.5873916 Z" id="Rectangle" fill="#FFFFFF" fill-rule="nonzero" transform="translate(17.514143, 9.473311) rotate(45.000000) translate(-17.514143, -9.473311) "></path>
                                <path d="M22.1495024,3.58515168 L12.878783,3.58515168 C11.7717394,3.58515168 10.8743032,4.48258788 10.8743032,5.58963153 L10.8743032,13.356991 C10.8743032,14.4640346 11.7717394,15.3614708 12.878783,15.3614708 L22.1495024,15.3614708 C23.256546,15.3614708 24.1539822,14.4640346 24.1539822,13.356991 L24.1539822,5.58963153 C24.1539822,4.48258788 23.256546,3.58515168 22.1495024,3.58515168 Z M12.878783,4.5873916 L22.1495024,4.5873916 C22.7030242,4.5873916 23.1517423,5.0361097 23.1517423,5.58963153 L23.1517423,13.356991 C23.1517423,13.9105128 22.7030242,14.3592309 22.1495024,14.3592309 L12.878783,14.3592309 C12.3252612,14.3592309 11.8765431,13.9105128 11.8765431,13.356991 L11.8765431,5.58963153 C11.8765431,5.0361097 12.3252612,4.5873916 12.878783,4.5873916 Z" id="Rectangle-Copy" fill="#F5A623" fill-rule="nonzero" transform="translate(17.514143, 9.473311) rotate(45.000000) translate(-17.514143, -9.473311) "></path>
                                <path d="M21.1130861,8.19340074 L18.7806232,5.85918396 C18.0936879,5.17049479 16.893656,5.17049479 16.2067207,5.85918396 C15.4970847,6.56942128 15.4970847,7.72515425 16.2067207,8.43484034 L18.5391836,10.7690571 C18.8826512,11.113076 19.339823,11.3025996 19.8261098,11.3025996 C20.3124467,11.3025996 20.7696184,11.113076 21.1130359,10.7690571 C21.822722,10.0588198 21.822722,8.90308684 21.1130861,8.19340074 Z M20.2885433,9.94336177 C20.0412907,10.1906144 19.610979,10.1906144 19.3637264,9.94336177 L17.0312635,7.60914498 C16.7770454,7.35432548 16.7770454,6.93914759 17.0312635,6.68372674 C17.1548898,6.56010045 17.318756,6.49189802 17.493697,6.49189802 C17.668638,6.49189802 17.8325042,6.56010045 17.9561305,6.68372674 L20.2885934,9.01794353 C20.5433628,9.27276303 20.5433628,9.68854227 20.2885433,9.94336177 Z" id="Shape" fill="#F5A623" fill-rule="nonzero"></path>
                            </g>
                        </g>
                    </g>
                </g>
            </g>
        </g>
    </g>
</svg>