<?xml version="1.0" encoding="UTF-8"?>
<svg width="31px" height="29px" viewBox="0 0 31 29" version="1.1" xmlns="http://www.w3.org/2000/svg" xmlns:xlink="http://www.w3.org/1999/xlink">
    <!-- Generator: sketchtool 63.1 (101010) - https://sketch.com -->
    <title>78EEBEC8-73CA-4F2B-8639-B52F23A6C2C5</title>
    <desc>Created with sketchtool.</desc>
    <g id="Page-1" stroke="none" stroke-width="1" fill="none" fill-rule="evenodd">
        <g id="web_05_01" transform="translate(-505.000000, -1312.000000)">
            <g id="explainer-diagram" transform="translate(0.000000, 767.000000)">
                <g id="row-2" transform="translate(397.000000, 511.000000)">
                    <g id="key2-+-circle-copy-5" transform="translate(99.899998, 28.699999)">
                        <g id="lock_n_key">
                            <g id="Group-16">
                                <g id="lock-closed" fill="#07B4B9" fill-rule="nonzero">
                                    <g id="Group">
                                        <g transform="translate(0.000000, 5.760000)">
                                            <path d="M17.64,0 C13.868438,0 10.8,3.12565323 10.8,6.96758985 L10.8,10.3792801 C10.8,10.6116093 10.9850854,10.8 11.2131617,10.8 L13.5061878,10.8 C13.7342642,10.8 13.9192064,10.6116093 13.9192064,10.3792801 L13.9192064,6.96758985 C13.9192064,4.87769687 15.5883149,3.17741694 17.6399523,3.17741694 C19.6915897,3.17741694 21.3606981,4.87769687 21.3606981,6.96758985 L21.3606981,10.3792801 C21.3606981,10.6116093 21.5458312,10.8 21.7739553,10.8 L24.0669814,10.8 C24.2950578,10.8 24.48,10.6116093 24.48,10.3792801 L24.48,6.96758985 C24.48,3.12565323 21.4116097,0 17.64,0 Z M23.6540105,9.95856023 L22.1868785,9.95856023 L22.1868785,6.96758985 C22.1868785,4.41371905 20.1471698,2.33597717 17.6400954,2.33597717 C15.1330211,2.33597717 13.0933124,4.41371905 13.0933124,6.96758985 L13.0933124,9.95856023 L11.6261803,9.95856023 L11.6261803,6.96758985 C11.6261803,3.58963106 14.3239704,0.841488375 17.6400477,0.841488375 C20.9561728,0.841488375 23.6540105,3.58963106 23.6540105,6.96758985 L23.6540105,9.95856023 L23.6540105,9.95856023 Z" id="Shape"></path>
                                            <path d="M25.5454042,10.08 L10.4546446,10.08 C9.45407216,10.08 8.64,10.8622448 8.64,11.8236983 L8.64,22.7363017 C8.64,23.6977552 9.45407216,24.48 10.4546446,24.48 L25.5454042,24.48 C26.5459766,24.48 27.36,23.6977552 27.36,22.7362548 L27.36,11.8236983 C27.36,10.8622448 26.5459766,10.08 25.5454042,10.08 Z M26.5152348,22.7362548 C26.5152348,23.2501553 26.0801652,23.6682153 25.5454042,23.6682153 L10.4546446,23.6682153 C9.91983484,23.6682153 9.48476517,23.2501553 9.48476517,22.7362548 L9.48476517,11.8236983 C9.48476517,11.3097978 9.91983484,10.8917378 10.4546446,10.8917378 L25.5454042,10.8917378 C26.0801652,10.8917378 26.5152348,11.3097978 26.5152348,11.8236983 L26.5152348,22.7362548 Z" id="Shape"></path>
                                            <path d="M19.39396,17.4590886 C19.8782057,17.0539043 20.16,16.4615583 20.16,15.8249897 C20.16,14.6422472 19.1910298,13.68 18.0000239,13.68 C16.8089702,13.68 15.84,14.6422472 15.84,15.8249897 C15.84,16.4615583 16.1217943,17.0539043 16.6061357,17.4591837 L16.1401816,19.6637551 C16.1145639,19.785201 16.145353,19.9115447 16.2240734,20.007836 C16.3028418,20.1040322 16.4210182,20.16 16.5458504,20.16 L19.4541975,20.16 C19.5790776,20.16 19.697254,20.1040797 19.7759266,20.007836 C19.8545991,19.9114971 19.8853882,19.7851534 19.8597706,19.6638502 L19.39396,17.4590886 Z M18.7111894,16.9378793 C18.5656236,17.0299385 18.4926013,17.2019314 18.528083,17.3696922 L18.9437116,19.3366975 L17.0563841,19.3366975 L17.4721085,17.3698349 C17.5075423,17.2020265 17.4346637,17.0300336 17.2890021,16.9380219 C16.9007628,16.6926574 16.6690068,16.2765364 16.6690068,15.8250372 C16.6690068,15.0962191 17.2660659,14.5033025 18.0000239,14.5033025 C18.7339341,14.5033025 19.3309933,15.0962191 19.3309933,15.8250372 C19.331089,16.2766315 19.099333,16.6926574 18.7111894,16.9378793 Z" id="Shape"></path>
                                        </g>
                                    </g>
                                </g>
                                <g id="key2-copy-2" transform="translate(18.000000, 12.000000)">
                                    <g id="key2">
                                        <polygon id="Path-2" fill="#FFFFFF" points="0.564065086 19.3111121 0.707692111 21.6665357 3.21340681 21.6665357 3.40696511 19.5885192 4.81041202 19.5885192 4.81041202 18.3472992 6.11787549 18.1643836 6.11787549 16.7760553 7.61750476 16.7760553 10.8586614 13.5292292 12.119277 14.0504242 13.3461741 12.9542764 9.09724108 8.75124341 8.14814893 9.95426895 8.39104046 11.162964"></polygon>
                                        <path d="M9.838633,14.5220542 C9.65284741,14.3353295 9.35256891,14.3353295 9.16678332,14.5211151 L7.4054543,16.2838732 L6.17673785,16.2838732 C5.91398395,16.2838732 5.70161673,16.4967304 5.70161673,16.7594843 L5.70161673,17.7102165 L4.75133366,17.7102165 C4.48857976,17.7102165 4.27621255,17.9230737 4.27621255,18.1858276 L4.27621255,19.1365598 L3.32597031,19.1365598 C3.0637064,19.1365598 2.8508492,19.349417 2.8508492,19.6121709 L2.8508492,20.8418265 L2.65416147,21.0385551 L0.950283066,21.0385551 L0.950283066,19.3337784 L8.88790078,11.389505 C9.07368637,11.2042094 9.07368637,10.902951 8.88839077,10.7172062 L8.74919449,10.57752 C8.62232947,10.4511449 8.55295591,10.2829171 8.55295591,10.1037871 L8.55295591,10.101868 C8.55295591,9.83911412 8.34058869,9.62719606 8.07783479,9.62719606 C7.81508089,9.62719606 7.60271368,9.8409924 7.60271368,10.1037463 C7.60271368,10.4425294 7.70581447,10.7655921 7.89731654,11.0364308 L0.139196278,18.800635 C0.0498967003,18.8899754 0,19.010634 0,19.1370498 L0,21.5146153 C0,21.7768793 0.2128572,21.9897365 0.475121117,21.9897365 L2.85080837,21.9897365 C2.97673424,21.9897365 3.09788278,21.9393906 3.1867332,21.8505402 L3.66185432,21.3749291 C3.75119473,21.2855887 3.8010506,21.1649301 3.8010506,21.0390042 L3.8010506,20.088272 L4.75133366,20.088272 C5.01408756,20.088272 5.22645478,19.8754148 5.22645478,19.6126609 L5.22645478,18.6619287 L6.17673785,18.6619287 C6.43949175,18.6619287 6.65185896,18.4490715 6.65185896,18.1863176 L6.65185896,17.2355854 L7.60214203,17.2355854 C7.72851706,17.2355854 7.84921644,17.1852395 7.93806687,17.0963891 L9.83859217,15.1944347 C10.0244186,15.0085674 10.0244186,14.7077989 9.838633,14.5220542 Z" id="Path" fill="#F5A623" fill-rule="nonzero"></path>
                                        <path d="M9.5960622,16.5236827 L11.8210462,14.3226505 C12.0068318,14.1373549 12.0068318,13.8360964 11.8215362,13.6503516 L11.6823399,13.5106654 C11.5554749,13.3842903 11.4861013,13.2160625 11.4861013,13.0369325 L11.4861013,13.0350134 C11.4861013,12.7722595 11.2737341,12.5603415 11.0109802,12.5603415 C10.7482263,12.5603415 10.5358591,12.7741378 10.5358591,13.0368917 C10.5358591,13.3756748 10.6389599,13.6987376 10.830462,13.9695762 L8.78497541,15.9905393 L9.5960622,16.5236827 Z" id="Shape-Copy" fill="#F5A623" fill-rule="nonzero" transform="translate(10.372711, 14.542012) scale(1, -1) rotate(-270.000000) translate(-10.372711, -14.542012) "></path>
                                        <path d="M10.4938232,3.73787464 L18.0477427,3.73787464 C18.4987604,3.73787464 18.8643826,4.10349679 18.8643826,4.55451458 L18.8643826,10.8834741 C18.8643826,11.3344919 18.4987604,11.7001141 18.0477427,11.7001141 L10.4938232,11.7001141 C10.0428054,11.7001141 9.67718328,11.3344919 9.67718328,10.8834741 L9.67718328,4.55451458 C9.67718328,4.10349679 10.0428054,3.73787464 10.4938232,3.73787464 Z" id="Rectangle" fill="#FFFFFF" fill-rule="nonzero" transform="translate(14.270783, 7.718994) rotate(45.000000) translate(-14.270783, -7.718994) "></path>
                                        <path d="M18.0477427,2.9212347 L10.4938232,2.9212347 C9.59178765,2.9212347 8.86054334,3.65247901 8.86054334,4.55451458 L8.86054334,10.8834741 C8.86054334,11.7855097 9.59178765,12.516754 10.4938232,12.516754 L18.0477427,12.516754 C18.9497782,12.516754 19.6810225,11.7855097 19.6810225,10.8834741 L19.6810225,4.55451458 C19.6810225,3.65247901 18.9497782,2.9212347 18.0477427,2.9212347 Z M10.4938232,3.73787464 L18.0477427,3.73787464 C18.4987604,3.73787464 18.8643826,4.10349679 18.8643826,4.55451458 L18.8643826,10.8834741 C18.8643826,11.3344919 18.4987604,11.7001141 18.0477427,11.7001141 L10.4938232,11.7001141 C10.0428054,11.7001141 9.67718328,11.3344919 9.67718328,10.8834741 L9.67718328,4.55451458 C9.67718328,4.10349679 10.0428054,3.73787464 10.4938232,3.73787464 Z" id="Rectangle-Copy" fill="#F5A623" fill-rule="nonzero" transform="translate(14.270783, 7.718994) rotate(45.000000) translate(-14.270783, -7.718994) "></path>
                                        <path d="M17.2032553,6.67610431 L15.30273,4.77414989 C14.743005,4.21299576 13.7652012,4.21299576 13.2054761,4.77414989 C12.6272542,5.35286178 12.6272542,6.29457013 13.2054761,6.87283287 L15.1060014,8.77478729 C15.3858639,9.05509895 15.7583743,9.20952556 16.154608,9.20952556 C16.5508825,9.20952556 16.9233928,9.05509895 17.2032145,8.77478729 C17.7814772,8.1960754 17.7814772,7.25436705 17.2032553,6.67610431 Z M16.5314056,8.10199848 C16.3299406,8.30346355 15.9793162,8.30346355 15.7778511,8.10199848 L13.8773258,6.20004406 C13.6701851,5.99241335 13.6701851,5.65412026 13.8773258,5.44599957 C13.9780584,5.34526703 14.111579,5.28969468 14.2541235,5.28969468 C14.396668,5.28969468 14.5301886,5.34526703 14.6309212,5.44599957 L16.5314465,7.34795399 C16.7390363,7.55558469 16.7390363,7.89436777 16.5314056,8.10199848 Z" id="Shape" fill="#F5A623" fill-rule="nonzero"></path>
                                    </g>
                                </g>
                            </g>
                        </g>
                    </g>
                </g>
            </g>
        </g>
    </g>
</svg>