<?xml version="1.0" encoding="UTF-8"?>
<svg width="643px" height="128px" viewBox="0 0 643 128" version="1.1" xmlns="http://www.w3.org/2000/svg" xmlns:xlink="http://www.w3.org/1999/xlink">
    <!-- Generator: sketchtool 63.1 (101010) - https://sketch.com -->
    <title>B3E90B2D-66CA-4895-86BB-8B13998B329F</title>
    <desc>Created with sketchtool.</desc>
    <defs>
        <circle id="path-1" cx="49.5257855" cy="49.5499987" r="49.0499987"></circle>
        <circle id="path-3" cx="49.0499987" cy="49.0500043" r="49.0499987"></circle>
    </defs>
    <g id="Page-1" stroke="none" stroke-width="1" fill="none" fill-rule="evenodd">
        <g id="web_05_03" transform="translate(-397.000000, -252.000000)">
            <g id="end-to-end1" transform="translate(397.000000, 252.000000)">
                <g>
                    <g id="cir-+-key" transform="translate(90.899998, 24.499999)">
                        <circle id="Mask-Copy-5" stroke="#CDCDCD" fill="#FFFFFF" transform="translate(26.999999, 26.999999) scale(-1, -1) translate(-26.999999, -26.999999) " cx="26.9999993" cy="26.9999993" r="26.9999993"></circle>
                        <g id="key2" transform="translate(14.000000, 13.000000)">
                            <g>
                                <polygon id="Path-2" fill="#FFFFFF" points="0.692261696 23.7000012 0.868531227 26.5907483 3.94372654 26.5907483 4.18127537 24.0404553 5.90368748 24.0404553 5.90368748 22.5171399 7.50830173 22.2926526 7.50830173 20.5887952 9.34875584 20.5887952 13.326539 16.604054 14.8736582 17.2437024 16.3793955 15.8984302 11.1647959 10.7401624 10.000001 12.2166028 10.2980951 13.7000012"></polygon>
                                <path d="M12.074686,17.8225211 C11.8466764,17.5933589 11.4781528,17.5933589 11.2501432,17.8213685 L9.0885121,19.9847535 L7.5805419,19.9847535 C7.25807121,19.9847535 6.99743871,20.2459873 6.99743871,20.568458 L6.99743871,21.7352657 L5.83118222,21.7352657 C5.50871153,21.7352657 5.24807904,21.9964996 5.24807904,22.3189703 L5.24807904,23.485778 L4.08187266,23.485778 C3.76000331,23.485778 3.49876947,23.7470118 3.49876947,24.0694825 L3.49876947,25.5786053 L3.25737998,25.8200449 L1.16625649,25.8200449 L1.16625649,23.7278189 L10.9078782,13.9780289 C11.1358878,13.7506207 11.1358878,13.3808944 10.9084796,13.1529349 L10.7376478,12.9815018 C10.5819498,12.8264051 10.4968095,12.6199437 10.4968095,12.4001024 L10.4968095,12.3977471 C10.4968095,12.0752764 10.236177,11.8151952 9.91370634,11.8151952 C9.59123564,11.8151952 9.33060315,12.0775816 9.33060315,12.4000523 C9.33060315,12.8158315 9.45713594,13.2123176 9.6921612,13.5447105 L0.170831795,23.0735066 C0.0612368595,23.1831516 0,23.3312326 0,23.4863793 L0,26.4043006 C0,26.72617 0.261233837,26.9874038 0.583103189,26.9874038 L3.49871936,26.9874038 C3.65326475,26.9874038 3.80194705,26.9256157 3.91099075,26.816572 L4.49409394,26.2328675 C4.60373899,26.1232225 4.66492573,25.9751415 4.66492573,25.8205961 L4.66492573,24.6537884 L5.83118222,24.6537884 C6.15365292,24.6537884 6.41428541,24.3925546 6.41428541,24.0700839 L6.41428541,22.9032761 L7.5805419,22.9032761 C7.9030126,22.9032761 8.16364509,22.6420423 8.16364509,22.3195716 L8.16364509,21.1527639 L9.32990158,21.1527639 C9.48499821,21.1527639 9.63312927,21.0909758 9.74217298,20.9819321 L12.0746358,18.6477153 C12.3026955,18.4196055 12.3026955,18.0504805 12.074686,17.8225211 Z" id="Path" fill="#F5A623" fill-rule="nonzero"></path>
                                <path d="M11.7769854,20.2790651 L14.5076476,17.5777983 C14.7356572,17.3503901 14.7356572,16.9806638 14.508249,16.7527043 L14.3374172,16.5812711 C14.1817192,16.4261745 14.0965789,16.2197131 14.0965789,15.9998718 L14.0965789,15.9975165 C14.0965789,15.6750458 13.8359464,15.4149645 13.5134757,15.4149645 C13.191005,15.4149645 12.9303725,15.677351 12.9303725,15.9998217 C12.9303725,16.4156009 13.0569053,16.812087 13.2919306,17.1444799 L10.7815607,19.6247528 L11.7769854,20.2790651 Z" id="Shape-Copy" fill="#F5A623" fill-rule="nonzero" transform="translate(12.730145, 17.847015) scale(1, -1) rotate(-270.000000) translate(-12.730145, -17.847015) "></path>
                                <path d="M12.878783,4.5873916 L22.1495024,4.5873916 C22.7030242,4.5873916 23.1517423,5.0361097 23.1517423,5.58963153 L23.1517423,13.356991 C23.1517423,13.9105128 22.7030242,14.3592309 22.1495024,14.3592309 L12.878783,14.3592309 C12.3252612,14.3592309 11.8765431,13.9105128 11.8765431,13.356991 L11.8765431,5.58963153 C11.8765431,5.0361097 12.3252612,4.5873916 12.878783,4.5873916 Z" id="Rectangle" fill="#FFFFFF" fill-rule="nonzero" transform="translate(17.514143, 9.473311) rotate(45.000000) translate(-17.514143, -9.473311) "></path>
                                <path d="M22.1495024,3.58515168 L12.878783,3.58515168 C11.7717394,3.58515168 10.8743032,4.48258788 10.8743032,5.58963153 L10.8743032,13.356991 C10.8743032,14.4640346 11.7717394,15.3614708 12.878783,15.3614708 L22.1495024,15.3614708 C23.256546,15.3614708 24.1539822,14.4640346 24.1539822,13.356991 L24.1539822,5.58963153 C24.1539822,4.48258788 23.256546,3.58515168 22.1495024,3.58515168 Z M12.878783,4.5873916 L22.1495024,4.5873916 C22.7030242,4.5873916 23.1517423,5.0361097 23.1517423,5.58963153 L23.1517423,13.356991 C23.1517423,13.9105128 22.7030242,14.3592309 22.1495024,14.3592309 L12.878783,14.3592309 C12.3252612,14.3592309 11.8765431,13.9105128 11.8765431,13.356991 L11.8765431,5.58963153 C11.8765431,5.0361097 12.3252612,4.5873916 12.878783,4.5873916 Z" id="Rectangle-Copy" fill="#F5A623" fill-rule="nonzero" transform="translate(17.514143, 9.473311) rotate(45.000000) translate(-17.514143, -9.473311) "></path>
                                <path d="M21.1130861,8.19340074 L18.7806232,5.85918396 C18.0936879,5.17049479 16.893656,5.17049479 16.2067207,5.85918396 C15.4970847,6.56942128 15.4970847,7.72515425 16.2067207,8.43484034 L18.5391836,10.7690571 C18.8826512,11.113076 19.339823,11.3025996 19.8261098,11.3025996 C20.3124467,11.3025996 20.7696184,11.113076 21.1130359,10.7690571 C21.822722,10.0588198 21.822722,8.90308684 21.1130861,8.19340074 Z M20.2885433,9.94336177 C20.0412907,10.1906144 19.610979,10.1906144 19.3637264,9.94336177 L17.0312635,7.60914498 C16.7770454,7.35432548 16.7770454,6.93914759 17.0312635,6.68372674 C17.1548898,6.56010045 17.318756,6.49189802 17.493697,6.49189802 C17.668638,6.49189802 17.8325042,6.56010045 17.9561305,6.68372674 L20.2885934,9.01794353 C20.5433628,9.27276303 20.5433628,9.68854227 20.2885433,9.94336177 Z" id="Shape" fill="#F5A623" fill-rule="nonzero"></path>
                            </g>
                        </g>
                    </g>
                    <g id="cir-+-key-copy" transform="translate(236.000000, 24.000000)">
                        <circle id="Mask-Copy-5" stroke="#CDCDCD" fill="#FFFFFF" transform="translate(26.999999, 26.999999) scale(-1, -1) translate(-26.999999, -26.999999) " cx="26.9999993" cy="26.9999993" r="26.9999993"></circle>
                        <g id="key2" transform="translate(14.000000, 13.000000)">
                            <g>
                                <polygon id="Path-2" fill="#FFFFFF" points="0.692261696 23.7000012 0.868531227 26.5907483 3.94372654 26.5907483 4.18127537 24.0404553 5.90368748 24.0404553 5.90368748 22.5171399 7.50830173 22.2926526 7.50830173 20.5887952 9.34875584 20.5887952 13.326539 16.604054 14.8736582 17.2437024 16.3793955 15.8984302 11.1647959 10.7401624 10.000001 12.2166028 10.2980951 13.7000012"></polygon>
                                <path d="M12.074686,17.8225211 C11.8466764,17.5933589 11.4781528,17.5933589 11.2501432,17.8213685 L9.0885121,19.9847535 L7.5805419,19.9847535 C7.25807121,19.9847535 6.99743871,20.2459873 6.99743871,20.568458 L6.99743871,21.7352657 L5.83118222,21.7352657 C5.50871153,21.7352657 5.24807904,21.9964996 5.24807904,22.3189703 L5.24807904,23.485778 L4.08187266,23.485778 C3.76000331,23.485778 3.49876947,23.7470118 3.49876947,24.0694825 L3.49876947,25.5786053 L3.25737998,25.8200449 L1.16625649,25.8200449 L1.16625649,23.7278189 L10.9078782,13.9780289 C11.1358878,13.7506207 11.1358878,13.3808944 10.9084796,13.1529349 L10.7376478,12.9815018 C10.5819498,12.8264051 10.4968095,12.6199437 10.4968095,12.4001024 L10.4968095,12.3977471 C10.4968095,12.0752764 10.236177,11.8151952 9.91370634,11.8151952 C9.59123564,11.8151952 9.33060315,12.0775816 9.33060315,12.4000523 C9.33060315,12.8158315 9.45713594,13.2123176 9.6921612,13.5447105 L0.170831795,23.0735066 C0.0612368595,23.1831516 0,23.3312326 0,23.4863793 L0,26.4043006 C0,26.72617 0.261233837,26.9874038 0.583103189,26.9874038 L3.49871936,26.9874038 C3.65326475,26.9874038 3.80194705,26.9256157 3.91099075,26.816572 L4.49409394,26.2328675 C4.60373899,26.1232225 4.66492573,25.9751415 4.66492573,25.8205961 L4.66492573,24.6537884 L5.83118222,24.6537884 C6.15365292,24.6537884 6.41428541,24.3925546 6.41428541,24.0700839 L6.41428541,22.9032761 L7.5805419,22.9032761 C7.9030126,22.9032761 8.16364509,22.6420423 8.16364509,22.3195716 L8.16364509,21.1527639 L9.32990158,21.1527639 C9.48499821,21.1527639 9.63312927,21.0909758 9.74217298,20.9819321 L12.0746358,18.6477153 C12.3026955,18.4196055 12.3026955,18.0504805 12.074686,17.8225211 Z" id="Path" fill="#F5A623" fill-rule="nonzero"></path>
                                <path d="M11.7769854,20.2790651 L14.5076476,17.5777983 C14.7356572,17.3503901 14.7356572,16.9806638 14.508249,16.7527043 L14.3374172,16.5812711 C14.1817192,16.4261745 14.0965789,16.2197131 14.0965789,15.9998718 L14.0965789,15.9975165 C14.0965789,15.6750458 13.8359464,15.4149645 13.5134757,15.4149645 C13.191005,15.4149645 12.9303725,15.677351 12.9303725,15.9998217 C12.9303725,16.4156009 13.0569053,16.812087 13.2919306,17.1444799 L10.7815607,19.6247528 L11.7769854,20.2790651 Z" id="Shape-Copy" fill="#F5A623" fill-rule="nonzero" transform="translate(12.730145, 17.847015) scale(1, -1) rotate(-270.000000) translate(-12.730145, -17.847015) "></path>
                                <path d="M12.878783,4.5873916 L22.1495024,4.5873916 C22.7030242,4.5873916 23.1517423,5.0361097 23.1517423,5.58963153 L23.1517423,13.356991 C23.1517423,13.9105128 22.7030242,14.3592309 22.1495024,14.3592309 L12.878783,14.3592309 C12.3252612,14.3592309 11.8765431,13.9105128 11.8765431,13.356991 L11.8765431,5.58963153 C11.8765431,5.0361097 12.3252612,4.5873916 12.878783,4.5873916 Z" id="Rectangle" fill="#FFFFFF" fill-rule="nonzero" transform="translate(17.514143, 9.473311) rotate(45.000000) translate(-17.514143, -9.473311) "></path>
                                <path d="M22.1495024,3.58515168 L12.878783,3.58515168 C11.7717394,3.58515168 10.8743032,4.48258788 10.8743032,5.58963153 L10.8743032,13.356991 C10.8743032,14.4640346 11.7717394,15.3614708 12.878783,15.3614708 L22.1495024,15.3614708 C23.256546,15.3614708 24.1539822,14.4640346 24.1539822,13.356991 L24.1539822,5.58963153 C24.1539822,4.48258788 23.256546,3.58515168 22.1495024,3.58515168 Z M12.878783,4.5873916 L22.1495024,4.5873916 C22.7030242,4.5873916 23.1517423,5.0361097 23.1517423,5.58963153 L23.1517423,13.356991 C23.1517423,13.9105128 22.7030242,14.3592309 22.1495024,14.3592309 L12.878783,14.3592309 C12.3252612,14.3592309 11.8765431,13.9105128 11.8765431,13.356991 L11.8765431,5.58963153 C11.8765431,5.0361097 12.3252612,4.5873916 12.878783,4.5873916 Z" id="Rectangle-Copy" fill="#F5A623" fill-rule="nonzero" transform="translate(17.514143, 9.473311) rotate(45.000000) translate(-17.514143, -9.473311) "></path>
                                <path d="M21.1130861,8.19340074 L18.7806232,5.85918396 C18.0936879,5.17049479 16.893656,5.17049479 16.2067207,5.85918396 C15.4970847,6.56942128 15.4970847,7.72515425 16.2067207,8.43484034 L18.5391836,10.7690571 C18.8826512,11.113076 19.339823,11.3025996 19.8261098,11.3025996 C20.3124467,11.3025996 20.7696184,11.113076 21.1130359,10.7690571 C21.822722,10.0588198 21.822722,8.90308684 21.1130861,8.19340074 Z M20.2885433,9.94336177 C20.0412907,10.1906144 19.610979,10.1906144 19.3637264,9.94336177 L17.0312635,7.60914498 C16.7770454,7.35432548 16.7770454,6.93914759 17.0312635,6.68372674 C17.1548898,6.56010045 17.318756,6.49189802 17.493697,6.49189802 C17.668638,6.49189802 17.8325042,6.56010045 17.9561305,6.68372674 L20.2885934,9.01794353 C20.5433628,9.27276303 20.5433628,9.68854227 20.2885433,9.94336177 Z" id="Shape" fill="#F5A623" fill-rule="nonzero"></path>
                            </g>
                        </g>
                    </g>
                    <g id="alice">
                        <g id="Group-16-fill">
                            <g id="Group" transform="translate(0.524213, 0.500000)">
                                <mask id="mask-2" fill="white">
                                    <use xlink:href="#path-1"></use>
                                </mask>
                                <use id="Mask-Copy" fill="#FFFFFF" transform="translate(49.525786, 49.549999) scale(-1, -1) translate(-49.525786, -49.549999) " xlink:href="#path-1"></use>
                                <g id="lady" mask="url(#mask-2)">
                                    <g transform="translate(13.475787, 19.500000)"></g>
                                </g>
                                <path d="M54.1571361,19 C56.2872366,19 59.4762791,20.6307331 59.7552722,22.826403 C59.9412868,24.2903344 59.8375235,25.1504219 59.4333296,26.3228815 L59.1215442,27.1889668 L59.0210237,27.4954755 C58.9138771,27.8056282 58.7596624,28.1116078 58.5429167,28.4671967 L58.0117868,29.285 L58.2080241,29.260765 C58.2789355,29.2497028 58.3510497,29.2362576 58.425324,29.2200694 L58.6555846,29.1629167 L58.8879734,29.0931936 C58.97112,29.0665834 59.0607664,29.0363692 59.1593614,29.0018459 L60.0874197,28.6614007 C60.3657424,28.5593708 60.5937815,28.4794182 60.818,28.4066625 C62.2665728,27.9366211 63.6288727,28.3339889 64.5997981,29.1349294 C65.956016,30.2537075 66.7266212,32.1549618 66.3234967,34.0913369 C66.1390375,34.9773716 65.8350139,35.9522548 65.3327479,37.3334348 L64.0946095,40.6630608 L63.9880625,40.9645084 L63.9307016,41.1229926 C63.8460022,41.3548441 63.6892894,41.7571293 63.5300397,42.162598 L63.1467868,43.137 L63.2326797,43.1152483 C63.5828073,43.0375369 63.9675991,43.0037926 64.3256108,43.0292573 L64.5367126,43.0517631 C65.5051981,43.1915079 66.1513992,43.795196 66.1513992,44.8167491 C66.1513992,46.5286845 64.6390748,49.6807351 63.2156989,51.1677613 L62.1013105,52.328873 L61.1983016,53.2515012 L60.6055306,53.8416183 C59.5475754,54.8807725 58.7993968,55.5298761 58.3498933,55.7527123 C57.2474086,56.2992566 56.4743634,56.0337404 55.6391629,54.903441 C54.9679453,53.9950641 54.6260092,52.7253196 54.4152432,50.6568443 L54.3435583,49.8740797 L54.1927986,47.9970426 C54.1011586,46.9312988 54.0193389,46.3206328 53.9029755,45.9199137 L53.8466549,45.7489814 L54.7831446,45.3982863 C54.9600028,45.8705652 55.0595235,46.4778477 55.1641068,47.6264347 L55.3585659,50.0057059 L55.3771656,50.2138317 C55.5692964,52.3211587 55.8751577,53.5401148 56.44342,54.3091595 C57.0109747,55.0772466 57.2768028,55.16855 57.9057366,54.8567632 C58.2506229,54.6857898 59.0436762,53.9834426 60.1304358,52.9052143 L60.6429044,52.391105 L61.3828865,51.6332672 L62.4933005,50.4762842 C63.7515955,49.1617209 65.1513992,46.2441908 65.1513992,44.8167491 C65.1513992,44.3427348 64.9084365,44.1157564 64.3938995,44.0415128 C63.9165252,43.9726314 63.2877222,44.083765 62.9666577,44.2576684 C62.5461719,44.4854227 62.0700244,44.4561219 61.9579183,43.90456 C61.9140467,43.6887121 61.9638867,43.465544 62.0926478,43.0961782 L62.9500965,40.8912274 L63.4706295,39.4560253 L64.1497301,37.6511492 C64.7848339,35.9500032 65.1450168,34.8456618 65.3444873,33.8875217 C65.6679611,32.3337423 65.0460779,30.7994183 63.9634495,29.9063311 C63.2341654,29.3047264 62.2105155,29.0061391 61.1266438,29.3578402 L60.8005018,29.4679107 L59.6535483,29.8874277 C59.3613866,29.9928015 59.1328108,30.0683867 58.9225063,30.1266349 C58.4248027,30.2644842 58.0206193,30.3056889 57.5764477,30.3056889 C56.8809844,30.3056889 56.6514875,29.7659367 56.9116813,29.1976383 C56.9631568,29.085209 57.0303882,28.9664804 57.1267249,28.8137022 L57.5637028,28.1467372 C57.7733027,27.820214 57.9218141,27.5539856 58.0216653,27.311721 L58.086075,27.1386092 L58.1739302,26.8694692 L58.3960792,26.2545044 C58.8297889,25.0741971 58.9413497,24.3541076 58.7632485,22.9524547 C58.5713226,21.4420021 56.0250056,20.092853 54.3293797,20.004588 L54.1571361,20 L44.9848701,20 C42.8482785,20 39.9019239,22.4591753 37.6326413,25.5528818 L36.4376381,27.2337471 C36.0494724,27.7866266 35.9339397,27.9669586 35.6951009,28.3501704 C35.3363171,28.9258312 35.0408352,29.4744937 34.7520457,30.109315 C34.5091217,30.6433142 34.2662026,31.2494288 34.0017468,31.9826741 C32.7411473,35.4778854 33.0224348,37.4507019 35.8037918,39.2794003 L36.0170962,39.416304 L35.4859441,40.2635805 C32.0367377,38.1012954 31.6266443,35.6205421 33.0610589,31.6434011 C33.3341385,30.8862446 33.5869022,30.2555667 33.8418059,29.6952336 C34.0874555,29.155243 34.3388933,28.6715916 34.6249519,28.1863608 L35.0467797,27.5028068 C35.2588671,27.1712174 35.4623705,26.8777166 36.0887726,25.9947694 L36.6067989,25.2654366 C39.0096089,21.884375 42.1577731,19.1597068 44.7569854,19.0067715 L44.9848701,19 L54.1571361,19 Z" id="Path" fill="#062D56" fill-rule="nonzero" mask="url(#mask-2)"></path>
                                <path d="M55.4844782,43.1431187 L55.5600942,43.0925814 L55.7521028,42.9860404 C56.0708279,42.8039196 56.6945511,42.4375631 56.9660138,42.2346992 C58.3773824,41.1799842 59.0250074,40.3695007 59.0250074,39.0915535 C59.0250074,37.7346485 58.3392328,37.0393111 57.1045278,36.679137 C56.1859902,36.4111916 54.5394462,36.677402 53.9877821,37.2252487 L53.9062884,37.3191209 C53.8424913,37.406065 53.6167416,37.5162323 53.1572596,37.6450957 L52.8965651,37.7143587 C52.8009897,37.7385775 52.6954246,37.7642762 52.5759324,37.7925012 L51.3659145,38.0686499 C51.0282206,38.1460681 50.7497526,38.2319316 50.3434475,38.3779207 L49.9077242,38.5376947 C48.6964011,38.9820748 47.9580553,39.0791309 46.5835393,38.8162962 C44.6481856,38.4462183 42.7859565,37.1819465 41.3935329,35.7463657 C40.8202191,35.1552824 39.6853918,32.8184872 39.6852604,32.4996968 L39.6999701,32.2454982 C39.7007598,32.1835331 39.6947576,32.1403851 39.6786995,32.073328 C39.6124316,31.7966 39.3755745,31.6135192 39.0834904,31.6203193 C38.8354201,31.6264528 38.5451195,31.7640283 37.9629253,32.1101987 C36.6940171,32.8646868 35.8587404,34.6097232 35.4344051,37.0742928 C35.0860639,39.0974829 35.6711069,43.0399972 36.4154376,44.9768475 C37.1283892,46.8320449 38.2514949,48.9797164 39.3059848,50.3170792 C40.4939599,51.8237352 42.0056735,52.741752 43.8230073,53.1178027 C45.3791836,53.4398134 47.2664765,52.8303603 49.598643,51.5588165 C51.4107886,50.5707986 53.3887033,48.8156401 54.0384854,47.5540115 C54.2758339,47.0931712 54.506367,46.4575589 54.7332554,45.6820906 C54.8237788,45.3726959 54.9109389,45.0504395 54.994897,44.7189322 L55.1184531,44.2151845 C55.1979592,43.8807575 55.2368184,43.7061974 55.325951,43.2956933 C55.3316493,43.2694496 55.372956,43.2212534 55.4844782,43.1431187 Z M38.4740018,32.969734 L38.7407868,32.814 L38.7505901,32.848156 C39.0168009,33.7741195 40.0359388,35.782991 40.6757187,36.4426005 C42.1982252,38.012296 44.2150284,39.3815084 46.3957225,39.7985003 C47.86282,40.0790384 48.7581766,39.9929024 49.9840581,39.5718532 L50.4747747,39.3943998 C50.8970296,39.2386821 51.1630032,39.1496176 51.4457819,39.077966 L52.9867437,38.7223397 C53.1551007,38.6812819 53.2971088,38.6444572 53.4272944,38.6079462 C54.0910046,38.4218063 54.4750048,38.2344118 54.7125248,37.9107145 C54.8685059,37.6981401 56.2163751,37.4617336 56.8244907,37.6391261 C57.6734952,37.8867881 58.0250074,38.2432019 58.0250074,39.0915535 C58.0250074,39.9520078 57.5431776,40.5550034 56.3673992,41.433662 L56.2039244,41.5465072 C55.7845326,41.8215175 55.0011778,42.2630489 55.0202184,42.2508367 C54.6484479,42.4892818 54.4250818,42.7318277 54.3487216,43.0835078 L54.2131879,43.6953638 L54.1455687,43.9838926 C54.0280467,44.4782257 53.9039854,44.9552751 53.773492,45.4012807 C53.562997,46.1207191 53.351472,46.7039234 53.1494684,47.0961372 C52.6048917,48.1534972 50.7715963,49.7803237 49.1199497,50.6808344 C46.986476,51.8440468 45.2743461,52.3969355 44.025639,52.1385476 C42.4361905,51.809652 41.1316989,51.0174747 40.0912452,49.6979135 C39.1077583,48.4506008 38.0287793,46.3873109 37.348882,44.6181252 C36.6644313,42.8370909 36.1054614,39.0702794 36.4199047,37.2439704 C36.7993253,35.0402689 37.5184449,33.5379045 38.4740018,32.969734 Z" id="Path-2" fill="#062D56" fill-rule="nonzero" mask="url(#mask-2)"></path>
                                <path d="M39.8459047,40.0984941 C40.1180522,40.0516926 40.3766114,40.2343716 40.4234128,40.5065191 C40.6541682,41.8483465 40.6698764,42.2317067 40.5443022,43.3981718 C40.4989191,43.8197376 40.3645225,44.2171792 40.148917,44.6456644 L39.9976266,44.9281288 L39.6717868,45.489 L39.7134341,45.5603772 C39.7755001,45.6608071 39.8132115,45.6991428 39.8757527,45.7104599 L40.0387413,45.7268288 C40.2727003,45.7799246 40.5003881,45.8063268 40.8475754,45.8273525 L41.3463214,45.8571379 C41.6217582,45.876865 41.829052,46.1161426 41.8093249,46.3915794 C41.7895978,46.6670163 41.5503202,46.87431 41.2748834,46.854583 L40.7871259,46.8255238 C40.4697258,46.8063019 40.2300083,46.7820215 39.9944561,46.7385006 L39.8597868,46.711 L39.7842632,46.7074427 C39.4138547,46.6703867 39.1464953,46.4876089 38.9381998,46.199141 L38.8627717,46.0860895 L38.7232574,45.8440952 L38.6727691,45.7515277 C38.5610932,45.5106976 38.6299463,45.3113137 38.8037778,44.9928714 L39.1583833,44.3804378 C39.3830132,43.972453 39.5138266,43.6275899 39.550047,43.2911367 L39.5939492,42.8458919 C39.6568566,42.1079084 39.6202672,41.7365735 39.4378797,40.6760021 C39.3910783,40.4038547 39.5737573,40.1452955 39.8459047,40.0984941 Z" id="Path-3" fill="#062D56" fill-rule="nonzero" mask="url(#mask-2)"></path>
                                <path d="M42.8497712,52.5040238 L43.7704571,52.8943281 C42.9487298,54.8326942 41.7204934,55.8518259 39.4641799,56.3829398 L39.07655,56.4677179 C38.2682788,56.6320826 37.2539029,56.76701 35.8887775,56.9033233 L31.5809855,57.2896491 C31.2829803,57.31846 31.027012,57.3450156 30.7993547,57.3706547 L30.4457257,57.4376765 C27.6280265,57.9719663 26.3643914,58.4039295 24.84839,59.591379 C24.5594161,59.8177257 24.2750891,60.0673678 23.9939378,60.3426292 C22.1474313,62.1504518 21.5808139,63.6456045 21.1165818,67.2659727 L21.0704562,67.6351839 C21.0120644,68.1144163 20.9620373,68.593138 20.9150788,69.1137837 L20.8007128,70.526163 L20.6218135,72.8645587 C20.4710736,74.7109603 20.3345253,75.9621347 20.0850772,77.7247354 L19.9789754,78.459675 C19.5611129,81.3045782 18.6250358,84.498159 16.6597182,90.2094954 L14.9235911,95.2188358 C14.6462016,96.0260547 14.4451737,96.6215907 14.2496317,97.2147616 L13.9515736,98.1289089 L13,97.821488 L13.6074268,95.9802099 L15.8758503,89.4129808 C17.7098341,84.0569588 18.5952033,80.9994349 18.9895909,78.3143531 L19.1424587,77.2450345 C19.4058578,75.3401999 19.5364233,73.9925518 19.7181364,71.5969295 L19.8684157,69.6153897 L19.8838677,69.4290187 C19.9304073,68.8754285 19.9788414,68.3740739 20.0345593,67.8821129 L20.0777976,67.514234 C20.5767988,63.4188382 21.1861514,61.6921149 23.2943554,59.6280772 C23.6015874,59.3272816 23.9135767,59.0533517 24.2317554,58.8041296 C25.767491,57.6012226 27.0624105,57.1020711 29.550266,56.5943889 L30.6486211,56.3827495 L31.2529959,56.3175457 L34.7076055,56.0102952 C36.8559706,55.8176716 38.242844,55.6430995 39.235052,55.4095435 C41.0991625,54.9707503 42.0674426,54.2154899 42.7573591,52.7135083 L42.8497712,52.5040238 Z" id="Path-4" fill="#062D56" fill-rule="nonzero" mask="url(#mask-2)"></path>
                                <path d="M38.3974318,55.9385462 L39.3692805,56.174152 L39.1047508,57.2870885 C38.7512174,58.8081057 38.5215251,59.9529721 38.4164485,60.7078166 L38.3887868,60.92 L40.1970463,59.5017552 L40.2878731,59.4326212 C41.2347957,58.720785 42.0666561,58.2041381 42.8729212,57.8743071 L43.140851,57.7712711 L43.4793774,58.712228 C42.7018395,58.9919615 41.8678821,59.4959136 40.8887611,60.2319545 L39.0785108,61.6516211 C39.0103663,61.7040412 38.9564166,61.744765 38.9214603,61.7698418 C38.6002009,62.0003048 38.3705916,62.1288651 38.148306,62.1701663 C37.6735398,62.2583789 37.3500554,61.9220382 37.3500554,61.4528337 L37.3573066,61.2288498 C37.4032375,60.4530205 37.6674311,59.0439089 38.151619,56.9704959 L38.3974318,55.9385462 Z" id="Path-5" fill="#062D56" fill-rule="nonzero" mask="url(#mask-2)"></path>
                                <path d="M42.060163,54.1851088 C42.3363053,54.1851088 42.560163,54.4089664 42.560163,54.6851088 C42.560163,55.8084513 42.8999582,56.886202 43.6608091,57.9913046 L43.8439015,58.246847 C44.0935963,58.5822709 44.3421783,58.9836848 44.6001065,59.4615406 L44.8119357,59.86654 C45.0619849,60.3591464 45.3256014,60.9285883 45.6381136,61.642704 L46.6187868,63.939 L48.1700497,60.4800123 C48.5772947,59.5624693 49.0456893,58.5031351 49.5752117,57.3020575 C49.6866096,57.0493816 49.9817497,56.9348532 50.2344256,57.0462511 C50.4871016,57.157649 50.60163,57.4527892 50.4902321,57.7054651 L48.5178723,62.1583293 L47.6448423,64.1002529 L47.1809091,65.1001769 L47.1043005,65.2552416 C47.0725312,65.3168328 47.0725312,65.3168328 47.0422323,65.3702064 L47.0543527,65.3905409 C47.0668911,65.4275651 46.9879952,65.4513975 46.435724,65.6182245 C46.2997153,65.5738135 46.1892481,65.4732647 46.1322754,65.3420214 L44.857253,62.3546415 L44.5955659,61.7566714 C44.2622004,61.0054993 43.9869064,60.4308066 43.7201133,59.936527 C43.5308522,59.5858886 43.3496826,59.2843297 43.1732475,59.0278993 L43.0417565,58.8439764 C42.0253354,57.478582 41.560163,56.1130093 41.560163,54.6851088 C41.560163,54.4089664 41.7840206,54.1851088 42.060163,54.1851088 Z" id="Path-6" fill="#062D56" fill-rule="nonzero" mask="url(#mask-2)"></path>
                                <path d="M55.3420137,53.5415182 C55.5669925,53.3813959 55.8791786,53.4339724 56.0393009,53.6589512 C56.1994233,53.88393 56.1468467,54.1961161 55.921868,54.3562384 L55.4410437,54.6863463 C55.219815,54.8338178 54.9559487,55.0051107 54.6207931,55.2193315 L52.0156281,56.8738486 L51.5497868,57.18 L52.0720396,57.3857481 C52.4821572,57.5521456 52.9514575,57.7531172 53.4761251,57.9858411 L54.1548905,58.2905694 L54.8344107,58.6017763 L56.4557868,59.361 L56.6452287,57.6839226 C56.8194369,56.2398522 56.9530849,55.8265371 57.400483,55.6073421 C57.5047298,55.5562681 57.6234998,55.543059 57.736421,55.5699804 C58.766837,55.8156409 60.0989175,55.9929306 62.2055645,56.1932304 L65.2663066,56.47108 L66.3942464,56.5582611 C69.0799278,56.769359 70.4284359,57.0883719 71.393958,58.0360943 C72.960695,59.573948 74.109467,62.4827573 74.3700315,66.1380338 L74.654468,70.2327456 L74.7575533,71.8850875 C74.8923841,74.1686735 74.9660402,76.0178651 74.9758746,77.5951978 L74.9785709,78.2003637 C74.9915636,79.2607956 75.0875969,80.9666428 75.338678,84.6391644 L76.0178838,94.4047827 C76.2568663,97.9767522 76.3532307,99.8416518 76.3532307,100.972562 C76.3532307,101.248704 76.1293731,101.472562 75.8532307,101.472562 C75.5770883,101.472562 75.3532307,101.248704 75.3532307,100.972562 L75.3439574,100.311847 C75.3157686,99.1992085 75.2216655,97.5047604 75.0392419,94.7591592 L74.1755451,82.2230113 C74.0388447,80.0884924 73.9842532,78.9299554 73.9776932,78.1197483 L73.9770099,77.9544457 C73.9770099,76.0886516 73.8807508,73.822491 73.6928928,70.8613886 L73.5628459,68.9041409 L73.3725626,66.2091379 C73.1281535,62.7804933 72.0698531,60.1007675 70.69346,58.7497487 C69.9945532,58.0637264 68.8595998,57.7725951 66.6271733,57.5807581 L64.9435133,57.447283 L62.4934106,57.2245891 C60.5135426,57.0415614 59.1692242,56.8808528 58.1092121,56.6733718 L57.8227868,56.614 L57.7562563,57.0139594 C57.7152974,57.2720259 57.6636716,57.6215961 57.6112374,58.0471138 L57.4344541,59.6014076 C57.4088224,59.8114721 57.3841237,59.99809 57.358066,60.1769624 C57.3099036,60.5075726 56.9572724,60.6988455 56.6538846,60.5589219 L55.509701,60.0204079 C54.9890137,59.7753979 54.5242319,59.5589456 54.0756248,59.3534769 L53.3476971,59.0234824 C51.9732431,58.4075487 50.9517685,57.994979 50.3625784,57.8372734 C50.1334918,57.7466011 49.9987393,57.5108032 50.0407987,57.2654165 C50.0602205,57.1521041 50.1047104,57.0729608 50.1668988,56.9954952 C50.2213702,56.9276424 50.292083,56.8623413 50.388152,56.7848611 L50.5968959,56.6263669 C50.6780223,56.5674778 50.7708264,56.5023912 50.875706,56.4306878 L51.4672431,56.0375917 L54.5178676,54.0963221 C54.8727811,53.8658771 55.1260958,53.6951917 55.3420137,53.5415182 Z" id="Path-7" fill="#062D56" fill-rule="nonzero" mask="url(#mask-2)"></path>
                                <path d="M45.5509776,64.9940479 L46.5419073,64.8596666 L46.600875,65.3507238 C46.8028752,67.2281495 46.9565866,70.695669 46.9918581,73.3427295 L46.9990147,74.7428934 L46.986663,79.761807 L47.0025911,82.7244736 C47.032646,85.7239976 47.1056952,87.9049728 47.2315939,89.0153086 L47.3064554,89.5911617 C47.525815,91.4136077 47.6470851,95.0275672 47.673166,100.456468 L47.6753322,100.970745 L46.6753388,100.974378 L46.6638774,99.049965 C46.6247836,94.4380625 46.5074871,91.3204281 46.3141838,89.7148012 L46.2745104,89.4138412 C46.1264075,88.3917163 46.0430192,86.2340475 46.0072211,83.1602142 L45.9907029,81.0934989 C45.987189,80.3656596 45.9858652,79.6282467 45.9863648,78.8390838 L45.9995186,74.4199241 L45.9963588,73.7513202 C45.971304,70.9740081 45.799945,67.0516184 45.5788646,65.212813 L45.5509776,64.9940479 Z" id="Path-8" fill="#062D56" fill-rule="nonzero" mask="url(#mask-2)"></path>
                                <path d="M50.2254953,69.4550801 C49.2866112,69.4550801 48.5254953,70.2161961 48.5254953,71.1550802 C48.5254953,72.0939643 49.2866112,72.8550802 50.2254953,72.8550802 C51.1643794,72.8550802 51.9254954,72.0939643 51.9254954,71.1550802 C51.9254954,70.2161961 51.1643794,69.4550801 50.2254953,69.4550801 Z M50.2254953,70.4550801 C50.6120947,70.4550801 50.9254954,70.7684808 50.9254954,71.1550802 C50.9254954,71.5416795 50.6120947,71.8550802 50.2254953,71.8550802 C49.838896,71.8550802 49.5254953,71.5416795 49.5254953,71.1550802 C49.5254953,70.7684808 49.838896,70.4550801 50.2254953,70.4550801 Z" id="Oval" fill="#062D56" fill-rule="nonzero" mask="url(#mask-2)"></path>
                                <path d="M50.2254953,74.2550803 C49.2866112,74.2550803 48.5254953,75.0161963 48.5254953,75.9550804 C48.5254953,76.8939645 49.2866112,77.6550804 50.2254953,77.6550804 C51.1643794,77.6550804 51.9254954,76.8939645 51.9254954,75.9550804 C51.9254954,75.0161963 51.1643794,74.2550803 50.2254953,74.2550803 Z M50.2254953,75.2550803 C50.6120947,75.2550803 50.9254954,75.568481 50.9254954,75.9550804 C50.9254954,76.3416797 50.6120947,76.6550804 50.2254953,76.6550804 C49.838896,76.6550804 49.5254953,76.3416797 49.5254953,75.9550804 C49.5254953,75.568481 49.838896,75.2550803 50.2254953,75.2550803 Z" id="Oval-Copy" fill="#062D56" fill-rule="nonzero" mask="url(#mask-2)"></path>
                                <path d="M50.2254953,80.2550806 C49.2866112,80.2550806 48.5254953,81.0161965 48.5254953,81.9550806 C48.5254953,82.8939647 49.2866112,83.6550807 50.2254953,83.6550807 C51.1643794,83.6550807 51.9254954,82.8939647 51.9254954,81.9550806 C51.9254954,81.0161965 51.1643794,80.2550806 50.2254953,80.2550806 Z M50.2254953,81.2550806 C50.6120947,81.2550806 50.9254954,81.5684813 50.9254954,81.9550806 C50.9254954,82.34168 50.6120947,82.6550807 50.2254953,82.6550807 C49.838896,82.6550807 49.5254953,82.34168 49.5254953,81.9550806 C49.5254953,81.5684813 49.838896,81.2550806 50.2254953,81.2550806 Z" id="Oval-Copy-2" fill="#062D56" fill-rule="nonzero" mask="url(#mask-2)"></path>
                            </g>
                            <path d="M50.0499987,0 C22.4081477,0 0,22.4081477 0,50.0499987 C0,77.6918497 22.4081477,100.099997 50.0499987,100.099997 C77.6918497,100.099997 100.099997,77.6918497 100.099997,50.0499987 C100.099997,22.4081477 77.6918497,0 50.0499987,0 Z M50.0499987,1 C77.139565,1 99.0999974,22.9604324 99.0999974,50.0499987 C99.0999974,77.139565 77.139565,99.0999974 50.0499987,99.0999974 C22.9604324,99.0999974 1,77.139565 1,50.0499987 C1,22.9604324 22.9604324,1 50.0499987,1 Z" id="Mask" fill="#000000" fill-rule="nonzero" transform="translate(50.049999, 50.049999) scale(-1, -1) translate(-50.049999, -50.049999) "></path>
                        </g>
                    </g>
                    <text id="Alice-Copy" font-family="Raleway-Regular, Raleway" font-size="17" font-weight="normal" line-spacing="25" letter-spacing="0.53125" fill="#062D56">
                        <tspan x="28.1973737" y="123.799997">Alice</tspan>
                    </text>
                    <text id="Bob" font-family="Raleway-Regular, Raleway" font-size="17" font-weight="normal" line-spacing="25" letter-spacing="0.53125" fill="#062D56">
                        <tspan x="574.090109" y="123.799997">Bob</tspan>
                    </text>
                    <text id="Tom" font-family="Raleway-Regular, Raleway" font-size="17" font-weight="normal" line-spacing="25" letter-spacing="0.53125" fill="#062D56">
                        <tspan x="302.968109" y="123.799997">Tom</tspan>
                    </text>
                    <g id="cir-+-key" transform="translate(497.000000, 24.000000)">
                        <circle id="Mask-Copy-5" stroke="#CDCDCD" fill="#FFFFFF" transform="translate(26.999999, 26.999999) scale(-1, -1) translate(-26.999999, -26.999999) " cx="26.9999993" cy="26.9999993" r="26.9999993"></circle>
                        <g id="key2" transform="translate(12.200009, 14.500001)" fill="#3E96FC" fill-rule="nonzero">
                            <g>
                                <path d="M24.4943961,2.11667896 C23.1106577,0.751745967 21.2709301,0 19.3141064,0 C17.3572828,0 15.5175552,0.751745967 14.1338168,2.11667896 C12.9013011,3.33254274 12.1474026,4.94493585 12.0110542,6.65686455 C11.8857825,8.22851728 12.2848059,9.79772455 13.1378669,11.1151011 L0.462054915,23.6188614 C-0.154018305,24.2266372 -0.154018305,25.215489 0.462054915,25.8232648 C0.760491755,26.117605 1.15735262,26.2798381 1.57942607,26.2798381 C2.00149952,26.2798381 2.3982549,26.1176571 2.69679723,25.8232648 L4.05848783,24.4799768 L5.78523347,26.1834244 C6.08367031,26.4777646 6.48053117,26.6399977 6.90260462,26.6399977 C7.32467808,26.6399977 7.72143345,26.4778166 8.01992303,26.1833724 C8.63599625,25.5755966 8.63594351,24.5867447 8.01992303,23.9790209 L7.1056767,23.0772172 L8.12145907,22.0752014 L9.03565266,22.9769531 C9.3340895,23.2713974 9.73095036,23.4335785 10.1530238,23.4335785 C10.5750973,23.4335785 10.9718526,23.2714494 11.2702367,22.9770052 C11.5686736,22.682665 11.7331356,22.2911827 11.7331356,21.8748295 C11.7331356,21.4584762 11.5687263,21.0669939 11.2702895,20.7726017 L9.54338561,19.0692581 L15.3721345,13.3195566 C16.5479482,14.0623012 17.9031511,14.4531591 19.3145284,14.4532632 C21.2712993,14.4532112 23.1107104,13.7016213 24.4942379,12.3368444 C25.8779235,10.9718593 26.6399977,9.15706508 26.6399977,7.22676167 C26.6399977,5.29645826 25.8780818,3.48166399 24.4943961,2.11667896 Z M23.8848634,11.7356765 C22.6640573,12.9399894 21.0413268,13.6030743 19.3151614,13.6030743 C17.9605915,13.6029702 16.6653608,13.1956184 15.5689826,12.424829 C15.3975581,12.3043769 15.1631021,12.3235764 15.0141475,12.4704083 L8.62929751,18.7686742 C8.54849065,18.848438 8.50312909,18.9565067 8.50312909,19.0693102 C8.50312909,19.1821137 8.5485434,19.2901304 8.62929751,19.3699461 L10.6607568,21.3738736 C10.7964195,21.5076457 10.8711605,21.6855922 10.8711605,21.8748815 C10.8711605,22.0641188 10.7964195,22.2420653 10.6607568,22.3758894 C10.5251468,22.5097135 10.3447028,22.5833896 10.1529183,22.5833896 C9.96108114,22.5833896 9.78063709,22.5097135 9.64497439,22.3758373 L8.42601445,21.1734496 C8.25775473,21.0074703 7.98489969,21.0074703 7.81658722,21.1734496 L6.19143037,22.7765812 C6.0231179,22.9426646 6.0231179,23.2117697 6.19143037,23.3778011 L7.41039032,24.5802408 C7.69047155,24.8564221 7.69047155,25.3059712 7.41039032,25.5822046 C7.27478036,25.7160287 7.09433632,25.7897568 6.90255188,25.7897568 C6.71071469,25.7897568 6.53027065,25.7160287 6.39466069,25.5822046 L4.36320145,23.578225 C4.27901884,23.4952354 4.16877971,23.4537665 4.05843509,23.4537665 C3.94819596,23.4537665 3.83785134,23.4952354 3.75366873,23.578225 L2.08731726,25.222097 C1.95165456,25.3559211 1.77121051,25.4296492 1.57937333,25.4296492 C1.38753614,25.4296492 1.20709209,25.3559211 1.07148214,25.222097 C0.791400908,24.9459157 0.791400908,24.4963666 1.07148214,24.2201333 L13.9984178,11.4684446 C14.1472143,11.3215607 14.166783,11.0902302 14.0446233,10.921129 C12.2080078,8.37883526 12.501803,4.92885823 14.7431913,2.71779477 C15.9641556,1.51342988 17.5874136,0.850188891 19.3141064,0.850188891 C21.0407466,0.850188891 22.6640573,1.51348191 23.8849161,2.71789883 C25.1058804,3.92226372 25.7782864,5.52352217 25.7782864,7.22676167 C25.7782864,8.9300532 25.1058277,10.5313116 23.8848634,11.7356765 Z" id="Shape"></path>
                                <path d="M21.2399982,3.23999972 C20.0470632,3.23999972 19.0799984,4.20706458 19.0799984,5.39999954 C19.0799984,6.59293449 20.0470632,7.55999935 21.2399982,7.55999935 C22.4329331,7.55999935 23.399998,6.59293449 23.399998,5.39999954 C23.399998,4.20706458 22.4329331,3.23999972 21.2399982,3.23999972 Z M21.2399982,3.95999966 C22.0352881,3.95999966 22.679998,4.60470956 22.679998,5.39999954 C22.679998,6.19528951 22.0352881,6.83999941 21.2399982,6.83999941 C20.4447082,6.83999941 19.7999983,6.19528951 19.7999983,5.39999954 C19.7999983,4.60470956 20.4447082,3.95999966 21.2399982,3.95999966 Z" id="Oval-Copy"></path>
                            </g>
                        </g>
                    </g>
                    <g id="cir-+-key-copy-2" transform="translate(350.000000, 24.000000)">
                        <circle id="Mask-Copy-5" stroke="#CDCDCD" fill="#FFFFFF" transform="translate(26.999999, 26.999999) scale(-1, -1) translate(-26.999999, -26.999999) " cx="26.9999993" cy="26.9999993" r="26.9999993"></circle>
                        <g id="key2" transform="translate(12.200009, 14.500001)" fill="#3E96FC" fill-rule="nonzero">
                            <g>
                                <path d="M24.4943961,2.11667896 C23.1106577,0.751745967 21.2709301,0 19.3141064,0 C17.3572828,0 15.5175552,0.751745967 14.1338168,2.11667896 C12.9013011,3.33254274 12.1474026,4.94493585 12.0110542,6.65686455 C11.8857825,8.22851728 12.2848059,9.79772455 13.1378669,11.1151011 L0.462054915,23.6188614 C-0.154018305,24.2266372 -0.154018305,25.215489 0.462054915,25.8232648 C0.760491755,26.117605 1.15735262,26.2798381 1.57942607,26.2798381 C2.00149952,26.2798381 2.3982549,26.1176571 2.69679723,25.8232648 L4.05848783,24.4799768 L5.78523347,26.1834244 C6.08367031,26.4777646 6.48053117,26.6399977 6.90260462,26.6399977 C7.32467808,26.6399977 7.72143345,26.4778166 8.01992303,26.1833724 C8.63599625,25.5755966 8.63594351,24.5867447 8.01992303,23.9790209 L7.1056767,23.0772172 L8.12145907,22.0752014 L9.03565266,22.9769531 C9.3340895,23.2713974 9.73095036,23.4335785 10.1530238,23.4335785 C10.5750973,23.4335785 10.9718526,23.2714494 11.2702367,22.9770052 C11.5686736,22.682665 11.7331356,22.2911827 11.7331356,21.8748295 C11.7331356,21.4584762 11.5687263,21.0669939 11.2702895,20.7726017 L9.54338561,19.0692581 L15.3721345,13.3195566 C16.5479482,14.0623012 17.9031511,14.4531591 19.3145284,14.4532632 C21.2712993,14.4532112 23.1107104,13.7016213 24.4942379,12.3368444 C25.8779235,10.9718593 26.6399977,9.15706508 26.6399977,7.22676167 C26.6399977,5.29645826 25.8780818,3.48166399 24.4943961,2.11667896 Z M23.8848634,11.7356765 C22.6640573,12.9399894 21.0413268,13.6030743 19.3151614,13.6030743 C17.9605915,13.6029702 16.6653608,13.1956184 15.5689826,12.424829 C15.3975581,12.3043769 15.1631021,12.3235764 15.0141475,12.4704083 L8.62929751,18.7686742 C8.54849065,18.848438 8.50312909,18.9565067 8.50312909,19.0693102 C8.50312909,19.1821137 8.5485434,19.2901304 8.62929751,19.3699461 L10.6607568,21.3738736 C10.7964195,21.5076457 10.8711605,21.6855922 10.8711605,21.8748815 C10.8711605,22.0641188 10.7964195,22.2420653 10.6607568,22.3758894 C10.5251468,22.5097135 10.3447028,22.5833896 10.1529183,22.5833896 C9.96108114,22.5833896 9.78063709,22.5097135 9.64497439,22.3758373 L8.42601445,21.1734496 C8.25775473,21.0074703 7.98489969,21.0074703 7.81658722,21.1734496 L6.19143037,22.7765812 C6.0231179,22.9426646 6.0231179,23.2117697 6.19143037,23.3778011 L7.41039032,24.5802408 C7.69047155,24.8564221 7.69047155,25.3059712 7.41039032,25.5822046 C7.27478036,25.7160287 7.09433632,25.7897568 6.90255188,25.7897568 C6.71071469,25.7897568 6.53027065,25.7160287 6.39466069,25.5822046 L4.36320145,23.578225 C4.27901884,23.4952354 4.16877971,23.4537665 4.05843509,23.4537665 C3.94819596,23.4537665 3.83785134,23.4952354 3.75366873,23.578225 L2.08731726,25.222097 C1.95165456,25.3559211 1.77121051,25.4296492 1.57937333,25.4296492 C1.38753614,25.4296492 1.20709209,25.3559211 1.07148214,25.222097 C0.791400908,24.9459157 0.791400908,24.4963666 1.07148214,24.2201333 L13.9984178,11.4684446 C14.1472143,11.3215607 14.166783,11.0902302 14.0446233,10.921129 C12.2080078,8.37883526 12.501803,4.92885823 14.7431913,2.71779477 C15.9641556,1.51342988 17.5874136,0.850188891 19.3141064,0.850188891 C21.0407466,0.850188891 22.6640573,1.51348191 23.8849161,2.71789883 C25.1058804,3.92226372 25.7782864,5.52352217 25.7782864,7.22676167 C25.7782864,8.9300532 25.1058277,10.5313116 23.8848634,11.7356765 Z" id="Shape"></path>
                                <path d="M21.2399982,3.23999972 C20.0470632,3.23999972 19.0799984,4.20706458 19.0799984,5.39999954 C19.0799984,6.59293449 20.0470632,7.55999935 21.2399982,7.55999935 C22.4329331,7.55999935 23.399998,6.59293449 23.399998,5.39999954 C23.399998,4.20706458 22.4329331,3.23999972 21.2399982,3.23999972 Z M21.2399982,3.95999966 C22.0352881,3.95999966 22.679998,4.60470956 22.679998,5.39999954 C22.679998,6.19528951 22.0352881,6.83999941 21.2399982,6.83999941 C20.4447082,6.83999941 19.7999983,6.19528951 19.7999983,5.39999954 C19.7999983,4.60470956 20.4447082,3.95999966 21.2399982,3.95999966 Z" id="Oval-Copy"></path>
                            </g>
                        </g>
                    </g>
                    <g id="bob" transform="translate(542.000000, 1.000000)">
                        <g id="bob-fill">
                            <circle id="Mask-Copy-4" fill="#FFFFFF" transform="translate(50.049999, 50.049999) scale(-1, -1) translate(-50.049999, -50.049999) " cx="50.0499987" cy="50.0499987" r="49.0499987"></circle>
                            <path d="M50.0499987,0 C22.4081477,0 0,22.4081477 0,50.0499987 C0,77.6918497 22.4081477,100.099997 50.0499987,100.099997 C77.6918497,100.099997 100.099997,77.6918497 100.099997,50.0499987 C100.099997,22.4081477 77.6918497,0 50.0499987,0 Z M50.0499987,1 C77.139565,1 99.0999974,22.9604324 99.0999974,50.0499987 C99.0999974,77.139565 77.139565,99.0999974 50.0499987,99.0999974 C22.9604324,99.0999974 1,77.139565 1,50.0499987 C1,22.9604324 22.9604324,1 50.0499987,1 Z" id="Mask-Copy-5" fill="#000000" fill-rule="nonzero" transform="translate(50.049999, 50.049999) scale(-1, -1) translate(-50.049999, -50.049999) "></path>
                            <g id="doodle" transform="translate(1.000000, 1.000000)">
                                <mask id="mask-4" fill="white">
                                    <use xlink:href="#path-3"></use>
                                </mask>
                                <circle stroke="#000000" cx="49.0499987" cy="49.0500043" r="49.5499987"></circle>
                                <g id="guy" mask="url(#mask-4)" fill="#062D56" fill-rule="nonzero">
                                    <g transform="translate(15.300014, 15.000000)">
                                        <path d="M29.787524,26.0868327 L30.7106687,25.1072572 C30.7438613,25.0713149 30.7762743,25.035987 30.8086002,25.0005175 C31.5344429,24.204088 32.0578659,23.4933135 32.5116404,22.614621 C32.8307997,21.9965986 32.9500954,21.6484871 32.8874943,21.3369161 C32.8080012,20.9412722 32.5973502,20.8183666 32.1954422,20.7527949 L31.8411397,20.7020588 C31.7164731,20.6808798 31.6384923,20.6584971 31.5598536,20.6212828 L31.5000114,20.5903782 C30.6906679,20.1410681 30.6036377,20.0390599 30.6036377,19.5009811 C30.6036377,18.9989714 31.3378829,18.4049728 31.9674072,18.4049728 C32.4339088,18.4049728 32.5669877,18.5548956 32.8159975,19.3411518 C33.1342912,19.9801059 33.6414824,19.8712396 34.0295464,19.4902225 C34.1006636,19.4203967 34.1735637,19.3387507 34.2571979,19.2368826 L34.6539202,18.7264721 C34.7959995,18.542421 34.9012011,18.4137606 35.0003237,18.3058807 C35.0885279,18.2098836 35.165262,18.1384409 35.2287243,18.0924601 L36.762698,16.9347831 L36.8447719,16.8741244 C37.0960303,16.6900228 37.3295327,16.5251416 37.5516653,16.3760013 L38.6186759,15.704645 L44.9602167,11.8562379 C45.5310043,11.5082761 45.9856647,11.2296367 46.3600311,10.9982685 C48.5232756,9.66132664 49.650593,7.76004496 49.8670537,5.46492163 C50.0833966,3.17104727 49.0808604,1.24092413 47.1068844,0.66451813 C45.6556593,0.240756719 44.3428986,0.597538605 42.6164075,1.5920291 L42.1215207,1.88666314 L40.8206189,2.6992188 C39.6225177,3.44472272 38.8126467,3.81815895 37.7272012,4.04439831 C36.9672505,4.2027948 36.4324124,4.24197214 35.5466334,4.226832 L34.4998211,4.20484665 C34.1190768,4.20225454 33.8373692,4.21286851 33.4887656,4.24259644 C31.8158641,4.38525675 30.7196212,4.70112432 28.3702662,5.74320531 C26.452957,6.59364791 24.9339842,7.89541475 23.6720416,9.42847592 L23.1479946,10.0861965 L22.9647497,10.3273142 C22.937825,10.3641269 22.9122916,10.3998514 22.8875246,10.4353857 C22.2966801,11.2830962 22.1671653,12.0821365 22.5180913,13.3601225 L22.6459832,13.8079851 C22.7907364,14.2992773 22.9874641,14.9256622 23.2486835,15.7303777 L25.0730945,21.2327561 L25.2743565,21.8458022 C25.4238922,22.2945812 26.1249609,24.2773944 26.2785337,24.7610218 C26.5414441,25.5889724 26.6798645,26.213223 26.7073788,26.7599699 L26.7125244,26.9616134 C26.7125244,27.8264781 27.2026372,28.3110455 27.9091594,27.9489508 C28.166369,27.8171301 28.4290084,27.5873494 28.7924633,27.1989203 L29.2210528,26.7236474 L29.7123168,26.1688901 L29.787524,26.0868327 Z M29.9754633,24.4294104 L28.972986,25.4955477 L28.1995525,26.3663809 C28.0659392,26.5130292 27.948409,26.6364089 27.8458711,26.7373558 L27.71,26.864 L27.7125244,26.9616134 C27.7125244,26.3229107 27.588688,25.6483924 27.3335017,24.7894213 L27.2316351,24.4583706 C27.1817762,24.3013561 27.0787139,23.9988682 26.9561548,23.6439121 L26.1608268,21.3413772 L24.2308787,15.5171164 C23.8702149,14.4081772 23.6306181,13.6351159 23.482397,13.095331 C23.2091963,12.1004015 23.2889637,11.6082772 23.7079155,11.0071888 L23.8484809,10.8151817 L24.2092859,10.3560184 C25.42761,8.80578944 26.9055489,7.48685486 28.7757298,6.6573165 C31.0306942,5.65710342 32.0228109,5.37123842 33.5737344,5.23898006 L33.8767322,5.21757814 C34.07358,5.20691557 34.2679377,5.20321401 34.5066741,5.2049751 L35.2103941,5.21949279 C36.3601807,5.25076884 36.9951328,5.21847389 37.9312461,5.02335984 C39.0505057,4.7900726 39.9064912,4.41894023 41.0342266,3.74091988 L42.8541678,2.61219292 C44.4995205,1.62657944 45.6417692,1.27846152 46.8265873,1.62443142 C48.2866595,2.05077622 49.0466242,3.5138909 48.8714717,5.37102499 C48.6837507,7.36142232 47.7243372,8.9795251 45.8343048,10.1476147 L42.9452299,11.911046 L37.2276932,15.3919565 C36.9987682,15.5398138 36.7620964,15.7017288 36.5105287,15.8815502 L36.2537309,16.0674829 C35.9099073,16.3194087 34.8231967,17.1513899 34.6420032,17.2826711 C34.5171568,17.3731267 34.393839,17.4879409 34.2639607,17.629294 C34.1719603,17.7294225 34.080989,17.8375827 33.9745482,17.9718154 L33.569,18.495 L33.5498197,18.4475638 C33.2352096,17.7306245 32.7993344,17.4049728 31.9674072,17.4049728 C30.8267328,17.4049728 29.6036377,18.394447 29.6036377,19.5009811 C29.6036377,20.4853674 29.9213237,20.8577277 31.014637,21.4646846 L31.1200297,21.5201301 C31.2832636,21.6007423 31.4259628,21.6444675 31.6252825,21.6800397 L31.834,21.712 L31.7429876,21.9143681 C31.709184,21.9854806 31.6694426,22.0660845 31.6231252,22.1557738 C31.2654767,22.8483271 30.8582428,23.4271856 30.3122512,24.0545898 L29.9754633,24.4294104 Z" id="Path-9"></path>
                                        <path d="M44.3666402,11.148723 C44.6294473,11.0639465 44.9112194,11.2082688 44.9959959,11.4710759 C45.3904027,12.6937369 45.4237279,16.0697879 45.0136758,18.5947418 C44.6153038,21.0477734 43.842693,23.2929839 42.7064674,25.574182 C41.5252616,27.9456867 39.1745416,29.744231 36.4795646,29.9531596 C34.6875095,30.0920891 33.6926232,29.9327467 32.3468485,29.4118255 L31.5711625,29.0997262 C31.4497554,29.0518712 31.3450149,29.0122631 31.2365727,28.9733002 C30.9766957,28.8799271 30.8417176,28.5935613 30.9350906,28.3336842 C31.0284637,28.0738072 31.3148295,27.938829 31.5747066,28.0322021 L31.934226,28.1679465 L32.4499689,28.376708 C33.8056838,28.9290315 34.65851,29.0913367 36.4022713,28.9561512 C38.7217162,28.7763358 40.7779523,27.2031022 41.8113549,25.1283418 C42.9052821,22.932066 43.6455539,20.7808329 44.0266074,18.4344421 C44.4135244,16.0519462 44.3816604,12.8239354 44.0442873,11.7780787 C43.9595108,11.5152716 44.1038331,11.2334995 44.3666402,11.148723 Z" id="Path-10"></path>
                                        <path d="M26.8119552,26.9864178 C26.9503502,26.7474587 27.2562561,26.6659354 27.4952152,26.8043304 C27.7341743,26.9427254 27.8156976,27.2486313 27.6773026,27.4875904 C27.5510063,27.7056592 27.4249718,27.9418986 27.2921097,28.2075915 L27.1567091,28.48352 C27.0077383,28.7924337 26.5334619,29.8263424 26.4617373,29.9775465 L26.2731225,30.3636993 C26.0944713,30.7165947 25.942344,30.9744635 25.7864425,31.1800199 C24.8255962,32.4468973 23.6467369,33.5314987 22.4688722,33.8855207 C20.8810593,34.3627579 19.0567264,35.2378692 17.5220815,36.3839549 L17.1810969,36.6453694 C15.7648956,37.7597518 14.3793436,39.2130889 12.0327447,41.9246692 C10.2812216,43.9486178 7.74597688,49.3356465 6.24757824,53.9181557 C5.1271222,57.3448139 3.39503231,65.7173352 2.85461561,69.6940969 L2.73230774,70.6717888 C2.30601718,74.2715744 1.5,82.4800738 1.5,83.3465011 C1.5,83.6226435 1.27614237,83.8465011 1,83.8465011 C0.723857625,83.8465011 0.5,83.6226435 0.5,83.3465011 L0.50917795,83.0910437 C0.605533843,81.3027626 1.4357231,72.9489291 1.81530492,69.9290422 L1.91791888,69.1732921 C2.51940153,65.0082189 4.19102178,56.9900515 5.2970995,53.6073661 C6.83356454,48.9084396 9.41690958,43.4192047 11.2765814,41.2702862 L12.0966828,40.3295911 C14.1812938,37.9590048 15.4854076,36.6568723 16.9237193,35.5827291 C18.5577383,34.36243 20.4868921,33.4370374 22.1810301,32.9278429 C23.096327,32.6527389 24.1488267,31.6843938 24.9896806,30.5757265 C25.1249453,30.3973797 25.2763001,30.129748 25.4717091,29.7289941 L26.255975,28.0491492 C26.4503578,27.6460667 26.6294045,27.3016181 26.8119552,26.9864178 Z" id="Path-11"></path>
                                        <path d="M35.013592,28.9962021 L35.1037101,29.0008117 C35.3771315,29.039482 35.5674348,29.2924822 35.5287645,29.5659036 L35.4005119,30.3910948 C35.3285473,30.8161345 35.2028215,31.5290228 35.1958136,31.5704908 L35.128889,31.9918073 C35.0913601,32.2488718 35.0674035,32.4643945 35.0534019,32.6748824 C35.0179345,33.2080717 35.0508306,33.7034014 35.1691995,34.279134 C35.3128497,34.9778323 35.5076143,35.4669473 35.8338132,35.9689492 C36.019872,36.2552833 36.2538317,36.5561282 36.6067531,36.9690979 L37.8029769,38.3365259 C37.9852706,38.5460256 38.1755845,38.7545435 38.3839732,38.9740568 L38.8269884,39.4304969 L39.5756838,40.177883 C41.1649543,41.7621978 41.9623581,42.7575153 42.6988515,44.3084072 C44.0719933,47.1999396 45.2977796,50.9441939 45.8043933,54.0420771 L45.8892955,54.6039337 L46.1167155,56.3820153 C46.2208572,57.195857 46.313983,57.8543971 46.4237777,58.524173 C46.7161144,60.3075022 47.0889139,61.9004543 47.6028974,63.407218 C48.4679368,65.9431158 49.686444,68.0723525 51.3547321,69.7518209 C51.5493411,69.947734 51.5482839,70.2643147 51.3523707,70.4589237 C51.1564576,70.6535327 50.8398768,70.6524754 50.6452679,70.4565623 C48.8602944,68.6596266 47.5672666,66.4001715 46.6564475,63.7300687 C46.1225946,62.1650572 45.7376031,60.5200091 45.4369489,58.6859414 L45.3297005,58.0011626 C45.2951798,57.7702571 45.2615401,57.5346213 45.2277383,57.2880024 L44.8957685,54.7196532 C44.4660942,51.6337103 43.2081663,47.7120705 41.7955333,44.7373783 C41.1615737,43.4023998 40.4760312,42.5127279 39.1447287,41.1625394 L37.9958611,40.0116927 L37.8813237,39.8943037 C37.6508491,39.6569441 37.441691,39.4341265 37.2435017,39.2134175 L35.8465397,37.6187714 C35.4676971,37.1754699 35.2094461,36.8433893 34.9952915,36.5138174 C34.599013,35.903967 34.3578023,35.2982112 34.1896872,34.4805187 C34.053093,33.8161395 34.0142158,33.2307521 34.055607,32.6085097 C34.071371,32.3715271 34.0976945,32.1337638 34.138125,31.8558243 L34.238981,31.2368173 C34.2927632,30.9297862 34.4048281,30.2897118 34.4462398,30.0338156 C34.4795946,29.827706 34.51008,29.6276481 34.5386183,29.4258661 C34.5729919,29.1828249 34.7767126,29.0054572 35.013592,28.9962021 Z" id="Path-12"></path>
                                        <path d="M19.4345488,34.0972315 L20.1407751,34.2727104 C22.2476941,34.809447 23.1870595,35.1877713 24.7361294,36.0226946 L24.9423617,36.1430839 C25.8594009,36.7062194 28.1329784,38.3633045 28.3818446,38.5286559 C28.9199747,38.8862 29.4414183,39.2011013 29.9797855,39.488015 L30.2581968,39.6376566 L31.5071833,40.3304746 C31.9642942,40.5831174 32.2451174,40.722875 32.5182313,40.8280932 C33.0121977,41.0183958 33.5039078,41.094548 34.3063965,41.094548 C35.8559757,41.094548 36.444551,40.4264565 36.7246536,38.4704478 C36.7637982,38.197094 37.0171282,38.0072299 37.290482,38.0463745 C37.5638358,38.085519 37.7536999,38.3388491 37.7145554,38.6122029 C37.37049,41.0148752 36.4193197,42.094548 34.3063965,42.094548 C33.3892423,42.094548 32.7783017,41.9999303 32.1587331,41.7612391 C31.9259562,41.6715608 31.6985789,41.5658783 31.4075906,41.4132904 L29.7820054,40.5169991 C29.6916285,40.4680079 29.6015296,40.419575 29.5094723,40.3705146 C29.0830662,40.1432686 28.6677877,39.9000463 28.2489749,39.6346231 L27.8284409,39.3615691 C27.507431,39.1482839 24.9033281,37.2488152 24.2616733,36.9029737 L23.8127407,36.66531 C22.4424339,35.9552646 21.497191,35.627947 19.1982637,35.0689153 C18.9299407,35.003667 18.765316,34.733254 18.8305644,34.4649309 C18.8885628,34.2264215 19.1086668,34.0698467 19.3453146,34.0838228 L19.4345488,34.0972315 Z" id="Path-13"></path>
                                        <path d="M14.384361,46.5704814 C14.658289,46.6053825 14.8520585,46.8557379 14.8171574,47.1296659 L14.4683992,49.7361995 C14.1590743,52.1056001 13.9986052,53.8760615 13.8356322,57.0175467 C13.6690866,60.2279 14.1268768,64.5775988 14.9606384,67.7264549 C15.350269,69.1979676 15.8209155,70.5387036 16.3620925,71.7764255 C16.7483839,72.6599096 17.1501785,73.4488571 17.591974,74.2192406 L17.8620474,74.6798507 C18.0226968,74.9480796 18.7457617,76.0974244 18.8588783,76.3116126 C18.9878351,76.5557944 18.8944268,76.858283 18.650245,76.9872398 C18.4060632,77.1161966 18.1035746,77.0227883 17.9746178,76.7786065 L17.8930113,76.6377843 C17.6793807,76.2809347 17.1551005,75.4457067 17.0041485,75.1936692 C16.4329796,74.240015 15.927638,73.2789432 15.4458465,72.1770415 C14.8844528,70.8930821 14.396855,69.5040568 13.9939515,67.9824165 C13.1337456,64.7336886 12.6650297,60.2801796 12.8369752,56.9657387 L12.9246749,55.4058663 C13.0535401,53.3067226 13.1970845,51.8071375 13.4228908,50.025731 L13.8251766,47.0032778 C13.8561997,46.7597863 14.0574584,46.5796298 14.294188,46.5671133 L14.384361,46.5704814 Z" id="Path-14"></path>
                                        <path d="M25.5470805,49.1577831 L26.5256734,49.3635883 C25.8600306,52.5286864 25.5947413,55.6284121 25.7285968,58.6519971 C26.0046749,62.7342354 26.8228395,66.5609914 27.9339386,69.133879 L28.0743336,69.4488871 L27.1659008,69.8669179 C25.9273954,67.1754916 25.0260768,63.0844709 24.7302266,58.7078704 C24.602582,55.8274897 24.8249279,52.8932345 25.3968243,49.9057601 L25.5470805,49.1577831 Z" id="Path-15"></path>
                                    </g>
                                </g>
                            </g>
                        </g>
                    </g>
                    <g id="server" transform="translate(294.000000, 26.000000)" fill="#CDCDCD">
                        <g>
                            <path d="M49.059309,15.4924134 C50.4853642,15.4924134 51.6413779,14.3363996 51.6413779,12.9103445 L51.6413779,2.5820689 C51.6413779,1.15601376 50.4853642,0 49.059309,0 L2.5820689,0 C1.15601376,0 0,1.15601376 0,2.5820689 L0,12.9103445 C0,14.3363996 1.15601376,15.4924134 2.5820689,15.4924134 L5.16413779,15.4924134 L5.16413779,18.0744823 L2.5820689,18.0744823 C1.15601376,18.0744823 0,19.230496 0,20.6565512 L0,30.9848268 C0,32.4108819 1.15601376,33.5668957 2.5820689,33.5668957 L5.16413779,33.5668957 L5.16413779,36.1489646 L2.5820689,36.1489646 C1.15601376,36.1489646 0,37.3049783 0,38.7310335 L0,49.059309 C0,50.4853642 1.15601376,51.6413779 2.5820689,51.6413779 L49.059309,51.6413779 C50.4853642,51.6413779 51.6413779,50.4853642 51.6413779,49.059309 L51.6413779,38.7310335 C51.6413779,37.3049783 50.4853642,36.1489646 49.059309,36.1489646 L46.4772401,36.1489646 L46.4772401,33.5668957 L49.059309,33.5668957 C50.4853642,33.5668957 51.6413779,32.4108819 51.6413779,30.9848268 L51.6413779,20.6565512 C51.6413779,19.230496 50.4853642,18.0744823 49.059309,18.0744823 L46.4772401,18.0744823 L46.4772401,15.4924134 L49.059309,15.4924134 Z M49.059309,37.8703438 C49.5346249,37.8703438 49.9199987,38.2557176 49.9199987,38.7310335 L49.9199987,49.059309 C49.9199987,49.5346249 49.5346249,49.9199987 49.059309,49.9199987 L2.5820689,49.9199987 C2.10675305,49.9199987 1.72137926,49.5346249 1.72137926,49.059309 L1.72137926,38.7310335 C1.72137926,38.2557176 2.10675305,37.8703438 2.5820689,37.8703438 L49.059309,37.8703438 Z M6.88551706,36.1489646 L6.88551706,33.5668957 L8.60689632,33.5668957 L8.60689632,36.1489646 L6.88551706,36.1489646 Z M10.3282756,36.1489646 L10.3282756,33.5668957 L41.3131024,33.5668957 L41.3131024,36.1489646 L10.3282756,36.1489646 Z M43.0344816,36.1489646 L43.0344816,33.5668957 L44.7558609,33.5668957 L44.7558609,36.1489646 L43.0344816,36.1489646 Z M49.059309,19.7958615 C49.5346249,19.7958615 49.9199987,20.1812353 49.9199987,20.6565512 L49.9199987,30.9848268 C49.9199987,31.4601426 49.5346249,31.8455164 49.059309,31.8455164 L2.5820689,31.8455164 C2.10675305,31.8455164 1.72137926,31.4601426 1.72137926,30.9848268 L1.72137926,20.6565512 C1.72137926,20.1812353 2.10675305,19.7958615 2.5820689,19.7958615 L49.059309,19.7958615 Z M6.88551706,18.0744823 L6.88551706,15.4924134 L8.60689632,15.4924134 L8.60689632,18.0744823 L6.88551706,18.0744823 Z M10.3282756,18.0744823 L10.3282756,15.4924134 L41.3131024,15.4924134 L41.3131024,18.0744823 L10.3282756,18.0744823 Z M43.0344816,18.0744823 L43.0344816,15.4924134 L44.7558609,15.4924134 L44.7558609,18.0744823 L43.0344816,18.0744823 Z M2.5820689,13.7710341 C2.10675305,13.7710341 1.72137926,13.3856603 1.72137926,12.9103445 L1.72137926,2.5820689 C1.72137926,2.10675305 2.10675305,1.72137926 2.5820689,1.72137926 L49.059309,1.72137926 C49.5346249,1.72137926 49.9199987,2.10675305 49.9199987,2.5820689 L49.9199987,12.9103445 C49.9199987,13.3856603 49.5346249,13.7710341 49.059309,13.7710341 L2.5820689,13.7710341 Z" id="Shape"></path>
                            <path d="M27.3751365,7.26228659 L9.89090618,7.26228659 C9.41252399,6.0021536 7.92767677,5.34178624 6.57460663,5.7873754 C5.22153649,6.23296455 4.51230078,7.61551103 4.99068297,8.87564402 C5.46906516,10.135777 6.95391238,10.7961444 8.30698252,10.3505552 C9.0470781,10.1069382 9.62930107,9.56485014 9.89090618,8.87564402 L27.3751365,8.87564402 C27.8535187,8.87564402 28.2413786,8.51445362 28.2413786,8.0689653 C28.2413786,7.62347698 27.8535187,7.26228659 27.3751365,7.26228659 Z M7.45156846,8.87564402 C6.97318627,8.87564402 6.58532637,8.51445362 6.58532637,8.0689653 C6.58532637,7.62347698 6.97318627,7.26228659 7.45156846,7.26228659 C7.92995065,7.26228659 8.31781055,7.62347698 8.31781055,8.0689653 C8.31781055,8.51445362 7.92995065,8.87564402 7.45156846,8.87564402 Z" id="Shape"></path>
                            <rect id="Rectangle" x="37.9241369" y="3.22758612" width="1.61379306" height="1.61379306"></rect>
                            <rect id="Rectangle" x="41.151723" y="3.22758612" width="1.61379306" height="1.61379306"></rect>
                            <rect id="Rectangle" x="45.1862057" y="3.22758612" width="1.61379306" height="1.61379306"></rect>
                            <rect id="Rectangle" x="34.6965508" y="3.22758612" width="1.61379306" height="1.61379306"></rect>
                            <rect id="Rectangle" x="30.6620682" y="3.22758612" width="1.61379306" height="1.61379306"></rect>
                            <rect id="Rectangle" x="37.9241369" y="7.26206877" width="1.61379306" height="1.61379306"></rect>
                            <rect id="Rectangle" x="41.151723" y="7.26206877" width="1.61379306" height="1.61379306"></rect>
                            <rect id="Rectangle" x="45.1862057" y="7.26206877" width="1.61379306" height="1.61379306"></rect>
                            <rect id="Rectangle" x="34.6965508" y="7.26206877" width="1.61379306" height="1.61379306"></rect>
                            <rect id="Rectangle" x="30.6620682" y="7.26206877" width="1.61379306" height="1.61379306"></rect>
                            <rect id="Rectangle" x="37.9241369" y="10.4896549" width="1.61379306" height="1.61379306"></rect>
                            <rect id="Rectangle" x="41.151723" y="10.4896549" width="1.61379306" height="1.61379306"></rect>
                            <rect id="Rectangle" x="45.1862057" y="10.4896549" width="1.61379306" height="1.61379306"></rect>
                            <rect id="Rectangle" x="34.6965508" y="10.4896549" width="1.61379306" height="1.61379306"></rect>
                            <rect id="Rectangle" x="30.6620682" y="10.4896549" width="1.61379306" height="1.61379306"></rect>
                            <path d="M27.3751365,25.0140103 L9.89090618,25.0140103 C9.41252399,23.7538773 7.92767677,23.0935099 6.57460663,23.5390991 C5.22153649,23.9846882 4.51230078,25.3672347 4.99068297,26.6273677 C5.46906516,27.8875007 6.95391238,28.547868 8.30698252,28.1022789 C9.0470781,27.8586619 9.62919279,27.316473 9.8907979,26.6273677 L27.3751365,26.6273677 C27.8535187,26.6273677 28.2413786,26.2661773 28.2413786,25.820689 C28.2413786,25.3752007 27.8535187,25.0140103 27.3751365,25.0140103 Z M7.45156846,26.6273677 C6.97318627,26.6273677 6.58532637,26.2661773 6.58532637,25.820689 C6.58532637,25.3752007 6.97318627,25.0140103 7.45156846,25.0140103 C7.92995065,25.0140103 8.31781055,25.3752007 8.31781055,25.820689 C8.31781055,26.2661773 7.92995065,26.6273677 7.45156846,26.6273677 Z" id="Shape"></path>
                            <rect id="Rectangle" x="37.9241369" y="21.7862063" width="1.61379306" height="1.61379306"></rect>
                            <rect id="Rectangle" x="41.151723" y="21.7862063" width="1.61379306" height="1.61379306"></rect>
                            <rect id="Rectangle" x="45.1862057" y="21.7862063" width="1.61379306" height="1.61379306"></rect>
                            <rect id="Rectangle" x="34.6965508" y="21.7862063" width="1.61379306" height="1.61379306"></rect>
                            <rect id="Rectangle" x="30.6620682" y="21.7862063" width="1.61379306" height="1.61379306"></rect>
                            <rect id="Rectangle" x="37.9241369" y="25.0137924" width="1.61379306" height="1.61379306"></rect>
                            <rect id="Rectangle" x="41.151723" y="25.0137924" width="1.61379306" height="1.61379306"></rect>
                            <rect id="Rectangle" x="45.1862057" y="25.0137924" width="1.61379306" height="1.61379306"></rect>
                            <rect id="Rectangle" x="34.6965508" y="25.0137924" width="1.61379306" height="1.61379306"></rect>
                            <rect id="Rectangle" x="30.6620682" y="25.0137924" width="1.61379306" height="1.61379306"></rect>
                            <rect id="Rectangle" x="37.9241369" y="28.2413786" width="1.61379306" height="1.61379306"></rect>
                            <rect id="Rectangle" x="41.151723" y="28.2413786" width="1.61379306" height="1.61379306"></rect>
                            <rect id="Rectangle" x="45.1862057" y="28.2413786" width="1.61379306" height="1.61379306"></rect>
                            <rect id="Rectangle" x="34.6965508" y="28.2413786" width="1.61379306" height="1.61379306"></rect>
                            <rect id="Rectangle" x="30.6620682" y="28.2413786" width="1.61379306" height="1.61379306"></rect>
                            <path d="M27.3751365,42.7657339 L9.89090618,42.7657339 C9.41252399,41.5056009 7.92767677,40.8452336 6.57460663,41.2908227 C5.22153649,41.7364119 4.51230078,43.1189584 4.99068297,44.3790914 C5.46906516,45.6392243 6.95391238,46.2995917 8.30698252,45.8540025 C9.0470781,45.6103856 9.62919279,45.0681966 9.8907979,44.3790914 L27.3751365,44.3790914 C27.8535187,44.3790914 28.2413786,44.017901 28.2413786,43.5724126 C28.2413786,43.1269243 27.8535187,42.7657339 27.3751365,42.7657339 Z M7.45156846,44.3790914 C6.97318627,44.3790914 6.58532637,44.017901 6.58532637,43.5724126 C6.58532637,43.1269243 6.97318627,42.7657339 7.45156846,42.7657339 C7.92995065,42.7657339 8.31781055,43.1269243 8.31781055,43.5724126 C8.31781055,44.017901 7.92995065,44.3790914 7.45156846,44.3790914 Z" id="Shape"></path>
                            <rect id="Rectangle" x="37.9241369" y="39.53793" width="1.61379306" height="1.61379306"></rect>
                            <rect id="Rectangle" x="41.151723" y="39.53793" width="1.61379306" height="1.61379306"></rect>
                            <rect id="Rectangle" x="45.1862057" y="39.53793" width="1.61379306" height="1.61379306"></rect>
                            <rect id="Rectangle" x="34.6965508" y="39.53793" width="1.61379306" height="1.61379306"></rect>
                            <rect id="Rectangle" x="30.6620682" y="39.53793" width="1.61379306" height="1.61379306"></rect>
                            <rect id="Rectangle" x="37.9241369" y="42.7655161" width="1.61379306" height="1.61379306"></rect>
                            <rect id="Rectangle" x="41.151723" y="42.7655161" width="1.61379306" height="1.61379306"></rect>
                            <rect id="Rectangle" x="45.1862057" y="42.7655161" width="1.61379306" height="1.61379306"></rect>
                            <rect id="Rectangle" x="34.6965508" y="42.7655161" width="1.61379306" height="1.61379306"></rect>
                            <rect id="Rectangle" x="30.6620682" y="42.7655161" width="1.61379306" height="1.61379306"></rect>
                            <rect id="Rectangle" x="37.9241369" y="46.7999988" width="1.61379306" height="1.61379306"></rect>
                            <rect id="Rectangle" x="41.151723" y="46.7999988" width="1.61379306" height="1.61379306"></rect>
                            <rect id="Rectangle" x="45.1862057" y="46.7999988" width="1.61379306" height="1.61379306"></rect>
                            <rect id="Rectangle" x="34.6965508" y="46.7999988" width="1.61379306" height="1.61379306"></rect>
                            <rect id="Rectangle" x="30.6620682" y="46.7999988" width="1.61379306" height="1.61379306"></rect>
                        </g>
                    </g>
                    <g id="arrow-copy" transform="translate(151.000000, 38.000000)" fill="#F5A623" fill-rule="nonzero">
                        <g id="arrow-fills" transform="translate(0.661157, 0.954546)">
                            <path d="M72.029752,10.7954545 C72.4816214,10.7954545 72.8479338,11.3550985 72.8479338,12.0454545 C72.8479338,12.6926632 72.5259795,13.2249884 72.1134064,13.2890009 L72.029752,13.2954545 L1.33884293,13.2954545 C0.886973585,13.2954545 0.520661108,12.7358104 0.520661108,12.0454545 C0.520661108,11.3982458 0.842615434,10.8659206 1.25518859,10.8019081 L1.33884293,10.7954545 L72.029752,10.7954545 Z" id="Line"></path>
                            <g id="Group" transform="translate(56.194675, 0.261363)">
                                <path d="M15.9887003,10.7608277 C16.5503465,10.3863969 17.3091868,10.538165 17.6836176,11.0998112 C18.0330863,11.6240143 17.9241774,12.3199954 17.4514639,12.7148892 L17.3446341,12.7947285 L2.67796693,22.5725067 C2.11632074,22.9469375 1.3574804,22.7951694 0.983049603,22.2335232 C0.633580859,21.7093201 0.742489792,21.013339 1.21520334,20.6184452 L1.32203307,20.5386059 L15.9887003,10.7608277 Z" id="Line-Copy"></path>
                                <path d="M0.983049603,1.32203307 C1.33251835,0.797829953 2.01685051,0.630676229 2.56318076,0.915144963 L2.67796693,0.983049603 L17.3446341,10.7608277 C17.9062803,11.1352585 18.0580484,11.8940989 17.6836176,12.4557451 C17.3341489,12.9799482 16.6498167,13.1471019 16.1034864,12.8626332 L15.9887003,12.7947285 L1.32203307,3.0169504 C0.760386873,2.6425196 0.608618806,1.88367926 0.983049603,1.32203307 Z" id="Line-Copy-2"></path>
                            </g>
                        </g>
                    </g>
                    <g id="arrow-copy-5" transform="translate(412.000000, 38.000000)" fill="#F5A623" fill-rule="nonzero">
                        <g id="arrow-fills" transform="translate(0.661157, 0.954546)">
                            <path d="M72.029752,10.7954545 C72.4816214,10.7954545 72.8479338,11.3550985 72.8479338,12.0454545 C72.8479338,12.6926632 72.5259795,13.2249884 72.1134064,13.2890009 L72.029752,13.2954545 L1.33884293,13.2954545 C0.886973585,13.2954545 0.520661108,12.7358104 0.520661108,12.0454545 C0.520661108,11.3982458 0.842615434,10.8659206 1.25518859,10.8019081 L1.33884293,10.7954545 L72.029752,10.7954545 Z" id="Line"></path>
                            <g id="Group" transform="translate(56.194675, 0.261363)">
                                <path d="M15.9887003,10.7608277 C16.5503465,10.3863969 17.3091868,10.538165 17.6836176,11.0998112 C18.0330863,11.6240143 17.9241774,12.3199954 17.4514639,12.7148892 L17.3446341,12.7947285 L2.67796693,22.5725067 C2.11632074,22.9469375 1.3574804,22.7951694 0.983049603,22.2335232 C0.633580859,21.7093201 0.742489792,21.013339 1.21520334,20.6184452 L1.32203307,20.5386059 L15.9887003,10.7608277 Z" id="Line-Copy"></path>
                                <path d="M0.983049603,1.32203307 C1.33251835,0.797829953 2.01685051,0.630676229 2.56318076,0.915144963 L2.67796693,0.983049603 L17.3446341,10.7608277 C17.9062803,11.1352585 18.0580484,11.8940989 17.6836176,12.4557451 C17.3341489,12.9799482 16.6498167,13.1471019 16.1034864,12.8626332 L15.9887003,12.7947285 L1.32203307,3.0169504 C0.760386873,2.6425196 0.608618806,1.88367926 0.983049603,1.32203307 Z" id="Line-Copy-2"></path>
                            </g>
                        </g>
                    </g>
                </g>
            </g>
        </g>
    </g>
</svg>