<?xml version="1.0" encoding="UTF-8"?>
<svg width="52px" height="52px" viewBox="0 0 52 52" version="1.1" xmlns="http://www.w3.org/2000/svg" xmlns:xlink="http://www.w3.org/1999/xlink">
    <!-- Generator: sketchtool 63.1 (101010) - https://sketch.com -->
    <title>8CB24147-2503-4ABC-83CF-80677F44BA16</title>
    <desc>Created with sketchtool.</desc>
    <g id="Page-1" stroke="none" stroke-width="1" fill="none" fill-rule="evenodd">
        <g id="web_05_01" transform="translate(-691.000000, -1301.000000)" fill="#CDCDCD">
            <g id="explainer-diagram" transform="translate(0.000000, 767.000000)">
                <g id="row-2" transform="translate(397.000000, 511.000000)">
                    <g id="server" transform="translate(294.000000, 23.000000)">
                        <g>
                            <path d="M49.059309,15.4924134 C50.4853642,15.4924134 51.6413779,14.3363996 51.6413779,12.9103445 L51.6413779,2.5820689 C51.6413779,1.15601376 50.4853642,0 49.059309,0 L2.5820689,0 C1.15601376,0 0,1.15601376 0,2.5820689 L0,12.9103445 C0,14.3363996 1.15601376,15.4924134 2.5820689,15.4924134 L5.16413779,15.4924134 L5.16413779,18.0744823 L2.5820689,18.0744823 C1.15601376,18.0744823 0,19.230496 0,20.6565512 L0,30.9848268 C0,32.4108819 1.15601376,33.5668957 2.5820689,33.5668957 L5.16413779,33.5668957 L5.16413779,36.1489646 L2.5820689,36.1489646 C1.15601376,36.1489646 0,37.3049783 0,38.7310335 L0,49.059309 C0,50.4853642 1.15601376,51.6413779 2.5820689,51.6413779 L49.059309,51.6413779 C50.4853642,51.6413779 51.6413779,50.4853642 51.6413779,49.059309 L51.6413779,38.7310335 C51.6413779,37.3049783 50.4853642,36.1489646 49.059309,36.1489646 L46.4772401,36.1489646 L46.4772401,33.5668957 L49.059309,33.5668957 C50.4853642,33.5668957 51.6413779,32.4108819 51.6413779,30.9848268 L51.6413779,20.6565512 C51.6413779,19.230496 50.4853642,18.0744823 49.059309,18.0744823 L46.4772401,18.0744823 L46.4772401,15.4924134 L49.059309,15.4924134 Z M49.059309,37.8703438 C49.5346249,37.8703438 49.9199987,38.2557176 49.9199987,38.7310335 L49.9199987,49.059309 C49.9199987,49.5346249 49.5346249,49.9199987 49.059309,49.9199987 L2.5820689,49.9199987 C2.10675305,49.9199987 1.72137926,49.5346249 1.72137926,49.059309 L1.72137926,38.7310335 C1.72137926,38.2557176 2.10675305,37.8703438 2.5820689,37.8703438 L49.059309,37.8703438 Z M6.88551706,36.1489646 L6.88551706,33.5668957 L8.60689632,33.5668957 L8.60689632,36.1489646 L6.88551706,36.1489646 Z M10.3282756,36.1489646 L10.3282756,33.5668957 L41.3131024,33.5668957 L41.3131024,36.1489646 L10.3282756,36.1489646 Z M43.0344816,36.1489646 L43.0344816,33.5668957 L44.7558609,33.5668957 L44.7558609,36.1489646 L43.0344816,36.1489646 Z M49.059309,19.7958615 C49.5346249,19.7958615 49.9199987,20.1812353 49.9199987,20.6565512 L49.9199987,30.9848268 C49.9199987,31.4601426 49.5346249,31.8455164 49.059309,31.8455164 L2.5820689,31.8455164 C2.10675305,31.8455164 1.72137926,31.4601426 1.72137926,30.9848268 L1.72137926,20.6565512 C1.72137926,20.1812353 2.10675305,19.7958615 2.5820689,19.7958615 L49.059309,19.7958615 Z M6.88551706,18.0744823 L6.88551706,15.4924134 L8.60689632,15.4924134 L8.60689632,18.0744823 L6.88551706,18.0744823 Z M10.3282756,18.0744823 L10.3282756,15.4924134 L41.3131024,15.4924134 L41.3131024,18.0744823 L10.3282756,18.0744823 Z M43.0344816,18.0744823 L43.0344816,15.4924134 L44.7558609,15.4924134 L44.7558609,18.0744823 L43.0344816,18.0744823 Z M2.5820689,13.7710341 C2.10675305,13.7710341 1.72137926,13.3856603 1.72137926,12.9103445 L1.72137926,2.5820689 C1.72137926,2.10675305 2.10675305,1.72137926 2.5820689,1.72137926 L49.059309,1.72137926 C49.5346249,1.72137926 49.9199987,2.10675305 49.9199987,2.5820689 L49.9199987,12.9103445 C49.9199987,13.3856603 49.5346249,13.7710341 49.059309,13.7710341 L2.5820689,13.7710341 Z" id="Shape"></path>
                            <path d="M27.3751365,7.26228659 L9.89090618,7.26228659 C9.41252399,6.0021536 7.92767677,5.34178624 6.57460663,5.7873754 C5.22153649,6.23296455 4.51230078,7.61551103 4.99068297,8.87564402 C5.46906516,10.135777 6.95391238,10.7961444 8.30698252,10.3505552 C9.0470781,10.1069382 9.62930107,9.56485014 9.89090618,8.87564402 L27.3751365,8.87564402 C27.8535187,8.87564402 28.2413786,8.51445362 28.2413786,8.0689653 C28.2413786,7.62347698 27.8535187,7.26228659 27.3751365,7.26228659 Z M7.45156846,8.87564402 C6.97318627,8.87564402 6.58532637,8.51445362 6.58532637,8.0689653 C6.58532637,7.62347698 6.97318627,7.26228659 7.45156846,7.26228659 C7.92995065,7.26228659 8.31781055,7.62347698 8.31781055,8.0689653 C8.31781055,8.51445362 7.92995065,8.87564402 7.45156846,8.87564402 Z" id="Shape"></path>
                            <rect id="Rectangle" x="37.9241369" y="3.22758612" width="1.61379306" height="1.61379306"></rect>
                            <rect id="Rectangle" x="41.151723" y="3.22758612" width="1.61379306" height="1.61379306"></rect>
                            <rect id="Rectangle" x="45.1862057" y="3.22758612" width="1.61379306" height="1.61379306"></rect>
                            <rect id="Rectangle" x="34.6965508" y="3.22758612" width="1.61379306" height="1.61379306"></rect>
                            <rect id="Rectangle" x="30.6620682" y="3.22758612" width="1.61379306" height="1.61379306"></rect>
                            <rect id="Rectangle" x="37.9241369" y="7.26206877" width="1.61379306" height="1.61379306"></rect>
                            <rect id="Rectangle" x="41.151723" y="7.26206877" width="1.61379306" height="1.61379306"></rect>
                            <rect id="Rectangle" x="45.1862057" y="7.26206877" width="1.61379306" height="1.61379306"></rect>
                            <rect id="Rectangle" x="34.6965508" y="7.26206877" width="1.61379306" height="1.61379306"></rect>
                            <rect id="Rectangle" x="30.6620682" y="7.26206877" width="1.61379306" height="1.61379306"></rect>
                            <rect id="Rectangle" x="37.9241369" y="10.4896549" width="1.61379306" height="1.61379306"></rect>
                            <rect id="Rectangle" x="41.151723" y="10.4896549" width="1.61379306" height="1.61379306"></rect>
                            <rect id="Rectangle" x="45.1862057" y="10.4896549" width="1.61379306" height="1.61379306"></rect>
                            <rect id="Rectangle" x="34.6965508" y="10.4896549" width="1.61379306" height="1.61379306"></rect>
                            <rect id="Rectangle" x="30.6620682" y="10.4896549" width="1.61379306" height="1.61379306"></rect>
                            <path d="M27.3751365,25.0140103 L9.89090618,25.0140103 C9.41252399,23.7538773 7.92767677,23.0935099 6.57460663,23.5390991 C5.22153649,23.9846882 4.51230078,25.3672347 4.99068297,26.6273677 C5.46906516,27.8875007 6.95391238,28.547868 8.30698252,28.1022789 C9.0470781,27.8586619 9.62919279,27.316473 9.8907979,26.6273677 L27.3751365,26.6273677 C27.8535187,26.6273677 28.2413786,26.2661773 28.2413786,25.820689 C28.2413786,25.3752007 27.8535187,25.0140103 27.3751365,25.0140103 Z M7.45156846,26.6273677 C6.97318627,26.6273677 6.58532637,26.2661773 6.58532637,25.820689 C6.58532637,25.3752007 6.97318627,25.0140103 7.45156846,25.0140103 C7.92995065,25.0140103 8.31781055,25.3752007 8.31781055,25.820689 C8.31781055,26.2661773 7.92995065,26.6273677 7.45156846,26.6273677 Z" id="Shape"></path>
                            <rect id="Rectangle" x="37.9241369" y="21.7862063" width="1.61379306" height="1.61379306"></rect>
                            <rect id="Rectangle" x="41.151723" y="21.7862063" width="1.61379306" height="1.61379306"></rect>
                            <rect id="Rectangle" x="45.1862057" y="21.7862063" width="1.61379306" height="1.61379306"></rect>
                            <rect id="Rectangle" x="34.6965508" y="21.7862063" width="1.61379306" height="1.61379306"></rect>
                            <rect id="Rectangle" x="30.6620682" y="21.7862063" width="1.61379306" height="1.61379306"></rect>
                            <rect id="Rectangle" x="37.9241369" y="25.0137924" width="1.61379306" height="1.61379306"></rect>
                            <rect id="Rectangle" x="41.151723" y="25.0137924" width="1.61379306" height="1.61379306"></rect>
                            <rect id="Rectangle" x="45.1862057" y="25.0137924" width="1.61379306" height="1.61379306"></rect>
                            <rect id="Rectangle" x="34.6965508" y="25.0137924" width="1.61379306" height="1.61379306"></rect>
                            <rect id="Rectangle" x="30.6620682" y="25.0137924" width="1.61379306" height="1.61379306"></rect>
                            <rect id="Rectangle" x="37.9241369" y="28.2413786" width="1.61379306" height="1.61379306"></rect>
                            <rect id="Rectangle" x="41.151723" y="28.2413786" width="1.61379306" height="1.61379306"></rect>
                            <rect id="Rectangle" x="45.1862057" y="28.2413786" width="1.61379306" height="1.61379306"></rect>
                            <rect id="Rectangle" x="34.6965508" y="28.2413786" width="1.61379306" height="1.61379306"></rect>
                            <rect id="Rectangle" x="30.6620682" y="28.2413786" width="1.61379306" height="1.61379306"></rect>
                            <path d="M27.3751365,42.7657339 L9.89090618,42.7657339 C9.41252399,41.5056009 7.92767677,40.8452336 6.57460663,41.2908227 C5.22153649,41.7364119 4.51230078,43.1189584 4.99068297,44.3790914 C5.46906516,45.6392243 6.95391238,46.2995917 8.30698252,45.8540025 C9.0470781,45.6103856 9.62919279,45.0681966 9.8907979,44.3790914 L27.3751365,44.3790914 C27.8535187,44.3790914 28.2413786,44.017901 28.2413786,43.5724126 C28.2413786,43.1269243 27.8535187,42.7657339 27.3751365,42.7657339 Z M7.45156846,44.3790914 C6.97318627,44.3790914 6.58532637,44.017901 6.58532637,43.5724126 C6.58532637,43.1269243 6.97318627,42.7657339 7.45156846,42.7657339 C7.92995065,42.7657339 8.31781055,43.1269243 8.31781055,43.5724126 C8.31781055,44.017901 7.92995065,44.3790914 7.45156846,44.3790914 Z" id="Shape"></path>
                            <rect id="Rectangle" x="37.9241369" y="39.53793" width="1.61379306" height="1.61379306"></rect>
                            <rect id="Rectangle" x="41.151723" y="39.53793" width="1.61379306" height="1.61379306"></rect>
                            <rect id="Rectangle" x="45.1862057" y="39.53793" width="1.61379306" height="1.61379306"></rect>
                            <rect id="Rectangle" x="34.6965508" y="39.53793" width="1.61379306" height="1.61379306"></rect>
                            <rect id="Rectangle" x="30.6620682" y="39.53793" width="1.61379306" height="1.61379306"></rect>
                            <rect id="Rectangle" x="37.9241369" y="42.7655161" width="1.61379306" height="1.61379306"></rect>
                            <rect id="Rectangle" x="41.151723" y="42.7655161" width="1.61379306" height="1.61379306"></rect>
                            <rect id="Rectangle" x="45.1862057" y="42.7655161" width="1.61379306" height="1.61379306"></rect>
                            <rect id="Rectangle" x="34.6965508" y="42.7655161" width="1.61379306" height="1.61379306"></rect>
                            <rect id="Rectangle" x="30.6620682" y="42.7655161" width="1.61379306" height="1.61379306"></rect>
                            <rect id="Rectangle" x="37.9241369" y="46.7999988" width="1.61379306" height="1.61379306"></rect>
                            <rect id="Rectangle" x="41.151723" y="46.7999988" width="1.61379306" height="1.61379306"></rect>
                            <rect id="Rectangle" x="45.1862057" y="46.7999988" width="1.61379306" height="1.61379306"></rect>
                            <rect id="Rectangle" x="34.6965508" y="46.7999988" width="1.61379306" height="1.61379306"></rect>
                            <rect id="Rectangle" x="30.6620682" y="46.7999988" width="1.61379306" height="1.61379306"></rect>
                        </g>
                    </g>
                </g>
            </g>
        </g>
    </g>
</svg>